<svg width="21" height="21" viewBox="0 0 21 21" fill="none" xmlns="http://www.w3.org/2000/svg">
<path fill-rule="evenodd" clip-rule="evenodd" d="M4.12798 2.70561C5.20089 1.57604 6.97559 1.78767 7.86248 3.04206L8.96584 4.6026C9.67523 5.60594 9.61531 7.00084 8.76868 7.89218L8.55444 8.11774C8.55384 8.1193 8.55321 8.12099 8.55256 8.12281C8.54124 8.15463 8.51262 8.25594 8.54079 8.44822C8.59919 8.84682 8.90689 9.65679 10.1561 10.972C11.4092 12.2913 12.1693 12.6022 12.5215 12.6594C12.6735 12.6841 12.753 12.6627 12.7783 12.6537L13.1359 12.2773C13.9004 11.4724 15.0925 11.3138 16.0536 11.867L17.7253 12.8292C19.1541 13.6516 19.4867 15.6634 18.3448 16.8656L17.1018 18.1742C16.7139 18.5826 16.1849 18.9313 15.5312 18.9958C13.9354 19.1533 10.2384 18.9481 6.36266 14.8677C2.74614 11.0602 2.0591 7.74844 1.97225 6.13037L2.55509 6.09909L1.97225 6.13037C1.92934 5.33091 2.28571 4.64518 2.75458 4.15155L4.12798 2.70561ZM6.79079 3.79978C6.34248 3.16571 5.5371 3.12788 5.07962 3.60952L3.70622 5.05545C3.41626 5.36073 3.26412 5.71064 3.28287 6.06002C3.35378 7.38111 3.92268 10.3931 7.31429 13.9638C10.8705 17.7078 14.1467 17.8136 15.4023 17.6896C15.6506 17.6651 15.906 17.5274 16.1502 17.2703L17.3932 15.9617C17.9294 15.3972 17.7888 14.3802 17.0706 13.9667L15.3989 13.0045C14.9503 12.7463 14.4248 12.8261 14.0875 13.1812L13.689 13.6008L13.2277 13.1626C13.689 13.6008 13.6884 13.6014 13.6878 13.602L13.6865 13.6033L13.6839 13.606L13.6784 13.6117L13.6658 13.624C13.6568 13.6328 13.6464 13.6424 13.6347 13.6527C13.6111 13.6733 13.582 13.6968 13.5471 13.7216C13.477 13.7713 13.3836 13.826 13.2655 13.8726C13.024 13.9678 12.7051 14.0189 12.3111 13.9549C11.5433 13.8302 10.5369 13.2787 9.20445 11.8759C7.86802 10.4689 7.35653 9.4191 7.24216 8.6385C7.18394 8.24119 7.23053 7.92304 7.31602 7.6828C7.35806 7.56465 7.4077 7.47044 7.45348 7.3989C7.47631 7.36323 7.49806 7.33336 7.5173 7.30905C7.52692 7.2969 7.53591 7.28613 7.54409 7.27672L7.55575 7.26361L7.56109 7.2578L7.56363 7.25509L7.56487 7.25377C7.56547 7.25314 7.56607 7.2525 8.03128 7.69436L7.56608 7.25249L7.81704 6.98828C8.20689 6.57784 8.26353 5.88276 7.89415 5.36033L6.79079 3.79978Z" fill="#E7F0FF"/>
<path d="M11.6021 1.64507C11.66 1.28729 11.9982 1.04458 12.356 1.10251C12.3781 1.10675 12.4494 1.12006 12.4867 1.12838C12.5614 1.14501 12.6655 1.17061 12.7954 1.20843C13.0551 1.28407 13.4178 1.40867 13.8533 1.60829C14.725 2.00795 15.8851 2.70708 17.0889 3.91091C18.2927 5.11473 18.9919 6.27482 19.3915 7.14656C19.5911 7.58197 19.7157 7.94475 19.7914 8.20443C19.8292 8.33429 19.8548 8.43844 19.8714 8.5131C19.8797 8.55044 19.8858 8.58041 19.8901 8.60256L19.8951 8.62986C19.953 8.98763 19.7125 9.33984 19.3547 9.39776C18.998 9.45552 18.6619 9.21399 18.6026 8.85789C18.6007 8.84833 18.5957 8.82264 18.5903 8.79841C18.5795 8.74995 18.5608 8.67311 18.5312 8.57147C18.472 8.36818 18.3692 8.06601 18.1984 7.69355C17.8573 6.94953 17.244 5.92211 16.1608 4.83898C15.0777 3.75585 14.0503 3.14248 13.3063 2.80138C12.9338 2.63062 12.6316 2.52778 12.4283 2.46856C12.3267 2.43896 12.199 2.40964 12.1505 2.39885C11.7944 2.3395 11.5443 2.00182 11.6021 1.64507Z" fill="#E7F0FF"/>
<path fill-rule="evenodd" clip-rule="evenodd" d="M11.8003 4.66336C11.8999 4.31487 12.2631 4.11308 12.6116 4.21264L12.4313 4.84364C12.6116 4.21264 12.6119 4.21273 12.6122 4.21282L12.6129 4.21301L12.6142 4.21339L12.6171 4.21424L12.6239 4.21627L12.6412 4.22166C12.6544 4.22588 12.6709 4.23138 12.6905 4.23835C12.7298 4.25229 12.7818 4.27212 12.8455 4.29943C12.973 4.35406 13.1471 4.43843 13.3611 4.56505C13.7894 4.81852 14.374 5.23955 15.0609 5.9264C15.7477 6.61325 16.1688 7.19792 16.4222 7.6262C16.5489 7.84014 16.6332 8.01433 16.6878 8.1418C16.7152 8.2055 16.735 8.25744 16.7489 8.29674C16.7559 8.31639 16.7614 8.33286 16.7656 8.34606L16.771 8.36337L16.773 8.37015L16.7739 8.37307L16.7743 8.37441L16.7745 8.37505C16.7745 8.37536 16.7746 8.37567 16.1436 8.55595L16.7746 8.37567C16.8742 8.72416 16.6724 9.08739 16.3239 9.18695C15.9784 9.28568 15.6184 9.08814 15.5152 8.74509L15.512 8.73565C15.5073 8.72251 15.4977 8.69662 15.4815 8.65882C15.4491 8.58327 15.3904 8.4597 15.2927 8.29468C15.0976 7.96503 14.7453 7.46694 14.1328 6.85448C13.5203 6.24202 13.0222 5.88965 12.6926 5.69456C12.5276 5.59689 12.404 5.53818 12.3285 5.5058C12.2907 5.4896 12.2648 5.47995 12.2516 5.47528L12.2422 5.47205C11.8991 5.36891 11.7016 5.00889 11.8003 4.66336Z" fill="#E7F0FF"/>
</svg>
