<svg width="25" height="25" viewBox="0 0 25 25" fill="none" xmlns="http://www.w3.org/2000/svg">
<path d="M19.8437 5.11458C18.8887 4.14992 17.7512 3.38507 16.4975 2.86463C15.2438 2.3442 13.899 2.0786 12.5416 2.08333C6.85413 2.08333 2.21871 6.71875 2.21871 12.4062C2.21871 14.2292 2.69788 16 3.59371 17.5625L2.13538 22.9167L7.60413 21.4792C9.11454 22.3021 10.8125 22.7396 12.5416 22.7396C18.2291 22.7396 22.8645 18.1042 22.8645 12.4167C22.8645 9.65625 21.7916 7.0625 19.8437 5.11458ZM12.5416 20.9896C11 20.9896 9.48954 20.5729 8.16663 19.7917L7.85413 19.6042L4.60413 20.4583L5.46871 17.2917L5.26038 16.9687C4.40386 15.601 3.94906 14.02 3.94788 12.4062C3.94788 7.67708 7.80204 3.82291 12.5312 3.82291C14.8229 3.82291 16.9791 4.71875 18.5937 6.34375C19.3932 7.13954 20.0267 8.0861 20.4577 9.12856C20.8886 10.171 21.1083 11.2887 21.1041 12.4167C21.125 17.1458 17.2708 20.9896 12.5416 20.9896ZM17.25 14.5729C16.9895 14.4479 15.7187 13.8229 15.4895 13.7292C15.25 13.6458 15.0833 13.6042 14.9062 13.8542C14.7291 14.1146 14.2395 14.6979 14.0937 14.8646C13.9479 15.0417 13.7916 15.0625 13.5312 14.9271C13.2708 14.8021 12.4375 14.5208 11.4583 13.6458C10.6875 12.9583 10.177 12.1146 10.0208 11.8542C9.87496 11.5937 9.99996 11.4583 10.1354 11.3229C10.25 11.2083 10.3958 11.0208 10.5208 10.875C10.6458 10.7292 10.6979 10.6146 10.7812 10.4479C10.8645 10.2708 10.8229 10.125 10.7604 10C10.6979 9.875 10.177 8.60416 9.96871 8.08333C9.76038 7.58333 9.54163 7.64583 9.38538 7.63541H8.88538C8.70829 7.63541 8.43746 7.69791 8.19788 7.95833C7.96871 8.21875 7.30204 8.84375 7.30204 10.1146C7.30204 11.3854 8.22913 12.6146 8.35413 12.7812C8.47913 12.9583 10.177 15.5625 12.7604 16.6771C13.375 16.9479 13.8541 17.1042 14.2291 17.2187C14.8437 17.4167 15.4062 17.3854 15.8541 17.3229C16.3541 17.25 17.3854 16.6979 17.5937 16.0937C17.8125 15.4896 17.8125 14.9792 17.7395 14.8646C17.6666 14.75 17.5104 14.6979 17.25 14.5729Z" fill="#00FF19"/>
</svg>
