<svg width="27" height="27" viewBox="0 0 27 27" fill="none" xmlns="http://www.w3.org/2000/svg">
<rect width="27" height="27" rx="5" fill="url(#paint0_linear_301_460)"/>
<path d="M8.775 2.25H18.225C21.825 2.25 24.75 5.175 24.75 8.775V18.225C24.75 19.9555 24.0625 21.6152 22.8389 22.8389C21.6152 24.0625 19.9555 24.75 18.225 24.75H8.775C5.175 24.75 2.25 21.825 2.25 18.225V8.775C2.25 7.04446 2.93745 5.3848 4.16113 4.16113C5.3848 2.93745 7.04446 2.25 8.775 2.25ZM8.55 4.5C7.47587 4.5 6.44574 4.9267 5.68622 5.68622C4.9267 6.44574 4.5 7.47587 4.5 8.55V18.45C4.5 20.6887 6.31125 22.5 8.55 22.5H18.45C19.5241 22.5 20.5543 22.0733 21.3138 21.3138C22.0733 20.5543 22.5 19.5241 22.5 18.45V8.55C22.5 6.31125 20.6887 4.5 18.45 4.5H8.55ZM19.4062 6.1875C19.7792 6.1875 20.1369 6.33566 20.4006 6.59938C20.6643 6.8631 20.8125 7.22079 20.8125 7.59375C20.8125 7.96671 20.6643 8.3244 20.4006 8.58812C20.1369 8.85184 19.7792 9 19.4062 9C19.0333 9 18.6756 8.85184 18.4119 8.58812C18.1482 8.3244 18 7.96671 18 7.59375C18 7.22079 18.1482 6.8631 18.4119 6.59938C18.6756 6.33566 19.0333 6.1875 19.4062 6.1875ZM13.5 7.875C14.9918 7.875 16.4226 8.46763 17.4775 9.52252C18.5324 10.5774 19.125 12.0082 19.125 13.5C19.125 14.9918 18.5324 16.4226 17.4775 17.4775C16.4226 18.5324 14.9918 19.125 13.5 19.125C12.0082 19.125 10.5774 18.5324 9.52252 17.4775C8.46763 16.4226 7.875 14.9918 7.875 13.5C7.875 12.0082 8.46763 10.5774 9.52252 9.52252C10.5774 8.46763 12.0082 7.875 13.5 7.875ZM13.5 10.125C12.6049 10.125 11.7464 10.4806 11.1135 11.1135C10.4806 11.7464 10.125 12.6049 10.125 13.5C10.125 14.3951 10.4806 15.2536 11.1135 15.8865C11.7464 16.5194 12.6049 16.875 13.5 16.875C14.3951 16.875 15.2536 16.5194 15.8865 15.8865C16.5194 15.2536 16.875 14.3951 16.875 13.5C16.875 12.6049 16.5194 11.7464 15.8865 11.1135C15.2536 10.4806 14.3951 10.125 13.5 10.125Z" fill="white"/>
<defs>
<linearGradient id="paint0_linear_301_460" x1="1.26562" y1="25.7344" x2="27" y2="-1.26562" gradientUnits="userSpaceOnUse">
<stop stop-color="#FECF1D"/>
<stop offset="0.349" stop-color="#FE615D"/>
<stop offset="0.569" stop-color="#E71A94"/>
<stop offset="0.809" stop-color="#BE0EB6"/>
<stop offset="1" stop-color="#A005CF"/>
</linearGradient>
</defs>
</svg>