<svg width="85" height="85" viewBox="0 0 85 85" fill="none" xmlns="http://www.w3.org/2000/svg">
<path d="M7.0835 42.5001C7.0835 29.1436 7.0835 22.4654 11.2328 18.3161C15.3821 14.1667 22.0604 14.1667 35.4168 14.1667H49.5835C62.94 14.1667 69.6182 14.1667 73.7675 18.3161C77.9168 22.4654 77.9168 29.1436 77.9168 42.5001C77.9168 55.8565 77.9168 62.5348 73.7675 66.6841C69.6182 70.8334 62.94 70.8334 49.5835 70.8334H35.4168C22.0604 70.8334 15.3821 70.8334 11.2328 66.6841C7.0835 62.5348 7.0835 55.8565 7.0835 42.5001Z" stroke="white" stroke-width="5.3125"/>
<path d="M21.25 28.3333L28.8961 34.705C35.4008 40.1256 38.6532 42.8359 42.5 42.8359C46.3468 42.8359 49.5992 40.1256 56.1039 34.705L63.75 28.3333" stroke="white" stroke-width="5.3125" stroke-linecap="round"/>
</svg>
