<svg width="129" height="81" viewBox="0 0 129 81" fill="none" xmlns="http://www.w3.org/2000/svg">
<path fill-rule="evenodd" clip-rule="evenodd" d="M61.974 0.324622C62.0842 0.503024 61.825 0.760132 61.3979 0.895857C60.9256 1.04558 60.5692 0.986807 60.4891 0.746139C60.4163 0.528209 60.0158 0.361001 59.5992 0.374294C58.8653 0.398081 58.8632 0.408575 59.5408 0.699615C60.048 0.917545 60.0962 1.02179 59.7157 1.07811C58.8334 1.20894 58.5127 1.28414 57.9666 1.48703C56.6073 1.99215 56.2718 2.01559 55.859 1.6343C55.5187 1.31982 55.4707 1.32262 55.653 1.64654C55.9097 2.10339 54.0183 3.28119 53.6385 2.90095C53.5178 2.78062 53.4191 2.87472 53.4191 3.11049C53.4191 3.34626 53.2617 3.44211 53.0693 3.32317C52.8769 3.20424 52.7195 3.28294 52.7195 3.49808C52.7195 3.71321 52.5621 3.79191 52.3697 3.67298C52.1773 3.55404 52.0199 3.64045 52.0199 3.86467C52.0199 4.0889 51.7838 4.18195 51.4952 4.07106C51.1552 3.94058 50.9687 4.0812 50.9652 4.47089C50.9607 4.98721 50.9117 4.99805 50.6207 4.5475C50.4342 4.25891 50.2793 4.18929 50.2761 4.39323C50.2733 4.59682 50.0232 5.06906 49.7203 5.44266C49.4173 5.8159 49.268 5.92679 49.3886 5.68822C49.5328 5.40313 49.4219 5.32617 49.0647 5.46329C48.766 5.57803 48.5218 5.85928 48.5218 6.08805C48.5218 6.5421 46.0382 9.095 45.596 9.095C45.1297 9.095 44.3444 10.0482 44.6001 10.3039C44.7338 10.4376 44.5655 10.702 44.2265 10.8916C43.8872 11.0816 43.7011 11.3845 43.8127 11.565C43.9243 11.7458 43.7795 11.8935 43.4909 11.8935C43.2023 11.8935 42.8539 12.0754 42.7168 12.2975C42.5618 12.5476 42.6206 12.6064 42.8707 12.4514C43.429 12.1065 43.3782 12.5396 42.7916 13.1262C42.5261 13.3917 42.2029 13.5033 42.0735 13.3742C41.9444 13.2448 41.9524 13.4358 42.0913 13.7982C42.2571 14.2302 42.2144 14.3767 41.9675 14.2242C41.731 14.078 41.6554 14.2386 41.7646 14.6555C41.9962 15.5416 41.2609 16.8824 40.7211 16.5585C40.4423 16.3913 40.4546 16.4959 40.7578 16.8702C41.1419 17.3442 41.1143 17.4925 40.5829 17.8014C40.2055 18.021 40.1355 18.1729 40.4094 18.1795C40.6613 18.1851 40.7683 18.3499 40.6476 18.5454C40.5266 18.7409 40.2814 18.8106 40.1023 18.6997C39.9232 18.5891 39.7766 18.6559 39.7766 18.8483C39.7766 19.0407 39.9365 19.2971 40.132 19.4178C40.3276 19.5389 40.3919 19.7925 40.2748 19.9817C39.4702 21.2837 39.4433 29.8666 40.2412 30.6645C40.357 30.7803 40.2842 31.1881 40.0792 31.5708C39.791 32.1092 39.8064 32.2054 40.1467 31.9948C40.4658 31.7979 40.5322 31.9304 40.3891 32.4779C40.2804 32.8931 40.3234 33.1513 40.4846 33.0516C40.6459 32.9519 40.8764 33.0306 40.9975 33.2261C41.1181 33.4217 41.0503 33.5815 40.8467 33.5815C40.6431 33.5815 40.4762 33.7484 40.4762 33.952C40.4762 34.1556 40.6172 34.2353 40.7893 34.129C41.0971 33.9387 41.6901 34.9038 41.5813 35.418C41.5505 35.5621 41.6925 35.6804 41.8961 35.6804C42.0997 35.6804 42.1693 35.8378 42.0504 36.0302C41.9314 36.2226 42.0402 36.3824 42.2921 36.3852C42.6248 36.3891 42.6066 36.4835 42.2253 36.7298C41.7803 37.0173 41.7968 37.0698 42.3334 37.0744C42.6814 37.0772 42.8689 37.237 42.75 37.4294C42.6311 37.6218 42.7007 37.7792 42.9043 37.7792C43.1078 37.7792 43.2747 38.0153 43.2747 38.3039C43.2747 38.5925 43.415 38.8286 43.5867 38.8286C43.7581 38.8286 43.9988 39.2285 44.1216 39.7175C44.2444 40.2062 44.4973 40.5119 44.6841 40.3965C44.9867 40.2097 45.0874 40.4587 44.9923 41.1584C44.9751 41.2853 45.2147 41.5313 45.5243 41.7048C45.8342 41.8779 45.9976 42.1658 45.8874 42.3442C45.7772 42.5226 45.9179 42.58 46.2001 42.4715C46.515 42.3509 47.0201 42.6895 47.506 43.3468C47.9418 43.9362 48.5767 44.5067 48.9167 44.6148C49.2571 44.7229 49.6395 45.1388 49.7664 45.539C49.9315 46.0592 50.075 46.1421 50.2681 45.829C50.4699 45.503 50.6361 45.5579 50.919 46.0452C51.1279 46.4051 51.3063 46.5419 51.315 46.3495C51.3255 46.1162 51.4168 46.1162 51.5879 46.3495C51.8611 46.721 55.1024 48.5215 55.6929 48.6292C55.8853 48.6645 55.9944 48.8615 55.9356 49.0672C55.8709 49.2928 56.0318 49.2721 56.3418 49.0154C56.6961 48.7208 56.9259 48.7044 57.0851 48.9619C57.2117 49.1665 57.4618 49.2438 57.6409 49.1329C57.82 49.0224 58.1608 49.0518 58.3976 49.1983C59.1245 49.6471 60.0802 49.7314 64.4381 49.729C68.6494 49.7269 69.5858 49.6482 70.5597 49.2148C70.8483 49.0864 71.3992 48.9356 71.784 48.8797C72.1688 48.8237 72.7072 48.6386 72.9804 48.4683C73.3582 48.2329 73.4218 48.3025 73.2466 48.759C73.1098 49.1154 73.1567 49.2725 73.362 49.1455C73.5523 49.028 73.7104 48.6656 73.7132 48.3403C73.7181 47.8306 73.7657 47.8211 74.0578 48.2734C74.2442 48.562 74.3992 48.6253 74.4023 48.4141C74.4051 48.2028 75.0372 47.7459 75.8068 47.3989C76.5764 47.0519 77.206 46.6346 77.206 46.4712C77.206 46.3082 77.4422 46.1746 77.7307 46.1746C78.0193 46.1746 78.2555 46.0004 78.2555 45.7874C78.2555 45.5743 78.4762 45.4848 78.7455 45.5883C79.0422 45.702 79.3094 45.4949 79.4221 45.064C79.5246 44.6725 79.7904 44.4126 80.0129 44.4868C80.54 44.6624 83.7243 41.5771 83.568 41.0419C83.5022 40.8159 83.7796 40.4538 84.1847 40.2373C84.5901 40.0204 84.829 39.6934 84.716 39.5108C84.6031 39.3278 84.6776 39.1784 84.8812 39.1784C85.0848 39.1784 85.2516 38.9591 85.2516 38.6912C85.2516 38.4232 85.4979 38.1094 85.7984 37.994C86.0992 37.8786 86.2475 37.6257 86.1275 37.4319C86.0079 37.2381 86.103 37.0796 86.3388 37.0796C86.5746 37.0796 86.6645 36.9768 86.5389 36.8512C86.4133 36.7252 86.6358 36.0956 87.0339 35.4519C87.4316 34.808 87.6464 34.2811 87.511 34.2811C87.3756 34.2811 87.4606 34.045 87.7003 33.7564C87.9399 33.4678 88.0186 33.2317 87.8752 33.2317C87.7317 33.2317 87.8307 32.9715 88.0948 32.6531C88.3586 32.3352 88.5353 32.0203 88.4873 31.9535C88.2113 31.5712 88.4674 31.1322 88.8371 31.3543C89.1859 31.5638 89.1866 31.5086 88.8403 31.0804C88.6014 30.7852 88.5038 30.4462 88.6231 30.3266C89.4178 29.5318 89.3846 22.1579 88.5776 20.2014C88.4104 19.7956 88.4852 19.5875 88.7997 19.584C89.1653 19.5798 89.1537 19.5021 88.7497 19.2468C88.4611 19.0645 88.2054 18.7521 88.1812 18.5524C88.1571 18.353 88.098 18.1113 88.0501 18.0151C88.0021 17.9189 87.9231 17.6828 87.8752 17.4904C87.8272 17.298 87.7482 17.0619 87.7003 16.9657C87.6523 16.8695 87.5876 16.6725 87.5568 16.5284C87.5257 16.3843 87.3148 15.9327 87.0881 15.5248C86.8611 15.1173 86.775 14.6846 86.8964 14.5628C87.0178 14.4415 86.9244 14.3421 86.6886 14.3421C86.4529 14.3421 86.357 14.1847 86.4759 13.9923C86.5949 13.7999 86.5424 13.6425 86.3594 13.6425C86.1768 13.6425 85.9281 13.249 85.8074 12.768C85.6868 12.287 85.4335 11.8935 85.245 11.8935C85.0561 11.8935 84.9018 11.6629 84.9018 11.381C84.9018 11.0994 84.5747 10.6936 84.1749 10.4795C83.7754 10.2658 83.5292 9.87961 83.6282 9.62181C83.7271 9.364 83.5806 9.06561 83.3025 8.95892C83.024 8.85188 82.8372 8.57098 82.8873 8.33416C82.9369 8.09699 82.7096 7.89586 82.3814 7.88711C82.0533 7.87802 81.4237 7.38444 80.9822 6.78977C80.5408 6.19544 79.9828 5.77567 79.7425 5.85718C79.5018 5.93833 79.2097 5.75573 79.0929 5.45105C78.9757 5.14637 78.6609 4.89731 78.3929 4.89731C78.125 4.89731 77.9056 4.65174 77.9056 4.35196C77.9056 4.05217 77.7542 3.90035 77.5688 4.01474C77.3837 4.12913 76.4001 3.79226 75.3825 3.2658C74.3652 2.73934 73.3956 2.34651 73.2277 2.39303C73.0598 2.43921 73.0157 2.23457 73.1294 1.93828C73.2431 1.64165 73.1836 1.39923 72.9975 1.39923C72.8111 1.39923 72.6585 1.56224 72.6585 1.76128C72.6585 2.00685 72.4333 2.003 71.9589 1.74904C71.5741 1.543 71.2593 1.47829 71.2593 1.60457C71.2593 1.7312 71.0396 1.65249 70.7713 1.42966C70.503 1.20719 70.149 1.04907 69.9843 1.07846C69.271 1.20649 68.7858 1.02249 68.9856 0.699615C69.1045 0.507221 69.0349 0.349808 68.8313 0.349808C68.6277 0.349808 68.4608 0.524362 68.4608 0.737395C68.4608 1.19389 66.6583 0.829045 66.3358 0.307481C66.2042 0.0944486 65.5008 0.111588 64.415 0.355054C63.2179 0.623357 62.6649 0.627555 62.5788 0.369397C62.5113 0.166159 62.3021 0 62.1146 0C61.9268 0 61.8635 0.14622 61.974 0.324622ZM62.8744 11.5241C62.6754 11.8956 62.2091 12.1768 61.8379 12.1488C61.4671 12.1208 61.2569 11.9466 61.3713 11.7612C61.4927 11.5653 61.3244 11.5227 60.9687 11.6591C60.6329 11.7882 60.1743 11.8959 59.9493 11.8987C59.6929 11.9022 59.7213 12.0183 60.0245 12.2107C60.382 12.4371 60.2453 12.5658 59.4998 12.7043C58.945 12.8072 58.2552 12.8834 57.9666 12.8733C57.678 12.8631 57.0075 12.9709 56.4761 13.1129C55.6226 13.3406 55.5239 13.2829 55.6257 12.6151C55.689 12.1999 56.0042 11.5527 56.3257 11.1771C56.6471 10.8014 56.7577 10.4942 56.5716 10.4942C56.3687 10.4942 56.3925 10.143 56.6311 9.61971C56.85 9.13872 57.1708 8.74519 57.344 8.74519C57.5168 8.74519 57.5608 8.58778 57.4419 8.39538C57.323 8.20299 57.3926 8.04557 57.5962 8.04557C57.7998 8.04557 57.9666 7.80945 57.9666 7.52086C57.9666 7.23227 58.124 6.99615 58.3164 6.99615C58.5088 6.99615 58.6662 6.76003 58.6662 6.47144C58.6662 6.18285 58.8684 5.94673 59.1154 5.94673C59.3627 5.94673 59.8521 5.4605 60.2029 4.86652C60.6559 4.0994 61.033 3.83634 61.5032 3.95947C61.9187 4.06791 62.0786 3.992 61.9324 3.75588C61.7855 3.51801 61.9128 3.461 62.2776 3.60092C62.5956 3.723 62.8387 3.71041 62.8184 3.57293C62.7978 3.43546 62.8335 3.16576 62.8979 2.97336C62.9619 2.78097 63.0644 4.47404 63.1252 6.73589C63.1896 9.12508 63.0843 11.1316 62.8744 11.5241ZM66.8035 3.75623C66.7576 3.98501 66.9297 4.09205 67.1861 3.99375C67.6566 3.81325 69.8601 5.50387 69.8601 6.04537C69.8601 6.20628 69.7044 6.24162 69.5141 6.12408C69.3175 6.00235 69.2563 6.13947 69.3724 6.44206C69.4847 6.73485 69.6799 6.96047 69.8059 6.94368C69.9318 6.92689 70.2711 6.93424 70.5597 6.96012C71.026 7.00175 71.026 7.04442 70.5597 7.34596C70.0972 7.64469 70.0993 7.68562 70.5768 7.69052C71.0484 7.69507 72.088 9.71835 71.9491 10.3602C71.9215 10.4872 72.1093 10.7209 72.3664 10.8797C72.6232 11.0385 72.853 11.3313 72.8772 11.5311C72.9013 11.7304 72.9527 11.9326 72.9916 11.9809C73.03 12.0292 73.1168 12.358 73.1836 12.7117C73.2864 13.2546 73.1588 13.3147 72.3699 13.0964C71.8554 12.9544 71.1194 12.8418 70.7346 12.8467C69.5596 12.8617 67.4114 12.2366 67.4114 11.8798C67.4114 11.6951 67.2446 11.5436 67.041 11.5436C66.8374 11.5436 66.7678 11.7011 66.8867 11.8935C67.2799 12.5298 66.5285 12.2562 65.9149 11.5398C65.4238 10.9658 65.3126 10.1224 65.3126 6.96782C65.3126 3.15386 65.3238 3.10139 66.0996 3.21963C66.5327 3.28574 66.8493 3.52711 66.8035 3.75623ZM57.4262 4.42716C56.7682 4.9085 56.3544 4.82525 56.6919 4.2792C56.799 4.10604 57.1502 3.96437 57.4727 3.96437C57.9981 3.96437 57.9932 4.01264 57.4262 4.42716ZM72.4836 4.37574C72.8684 4.53316 73.262 4.67728 73.3582 4.69617C74.1029 4.84204 75.8068 5.74174 75.8068 5.98906C75.8068 6.15836 76.0429 6.29654 76.3315 6.29654C76.6201 6.29654 76.8562 6.45395 76.8562 6.64634C76.8562 6.83874 77.0923 6.99615 77.3809 6.99615C77.8441 6.99615 78.0512 7.39004 77.9592 8.097C77.9427 8.22188 78.2002 8.25301 78.5311 8.16626C79.3315 7.95707 81.5713 10.2525 81.2876 10.9917C81.1729 11.2907 81.1914 11.5122 81.3289 11.4838C81.8637 11.374 82.803 11.9928 82.803 12.4556C82.803 12.7236 82.9604 12.9429 83.1528 12.9429C83.3452 12.9429 83.5026 13.179 83.5026 13.4676C83.5026 13.7562 83.6694 13.9923 83.873 13.9923C84.0766 13.9923 84.1546 14.1364 84.0458 14.3124C83.937 14.4883 84.008 14.6856 84.2036 14.7507C84.3991 14.8157 84.63 15.239 84.7171 15.6906C84.8042 16.1426 85.0158 16.6932 85.1879 16.9139C85.6381 17.4925 85.9449 18.927 85.5689 18.6944C85.3943 18.5867 85.2516 18.2767 85.2516 18.0053C85.2516 17.7342 85.0494 17.5901 84.8021 17.6849C84.5548 17.7797 84.0434 17.5782 83.6652 17.2368C82.8957 16.5414 80.3218 15.2313 79.917 15.3286C79.7726 15.3632 79.6547 15.2247 79.6547 15.0211C79.6547 14.8175 79.5081 14.7412 79.329 14.8518C79.1499 14.9627 78.903 14.8906 78.7802 14.6919C78.6574 14.4932 78.4423 14.4016 78.302 14.4883C78.1617 14.5747 77.8185 14.5013 77.539 14.3243C77.1906 14.1039 77.1683 14.0014 77.4684 13.9975C77.7091 13.9948 77.9056 13.8181 77.9056 13.6051C77.9056 13.392 77.6877 13.3014 77.4212 13.4039C77.1546 13.5061 76.4956 13.1293 75.9565 12.5668C75.4175 12.004 75.088 11.5436 75.2247 11.5436C75.3615 11.5436 75.2328 11.1771 74.9393 10.7286C74.6454 10.2805 74.5108 9.80825 74.6395 9.67917C74.7686 9.55045 74.6902 9.4448 74.466 9.4448C74.2414 9.4448 74.0952 9.32657 74.141 9.18245C74.2792 8.74589 73.2962 6.64634 72.9534 6.64634C72.7778 6.64634 72.8034 6.33012 73.0101 5.94358C73.3288 5.34786 73.256 5.19079 72.5316 4.9155C72.0618 4.73674 71.5587 4.39918 71.4143 4.16516C71.2694 3.93114 71.2936 3.8185 71.4674 3.9147C71.6416 4.01089 72.0988 4.21868 72.4836 4.37574ZM55.4494 5.15966C55.4358 5.49653 55.5334 6.02684 55.6663 6.33886C55.8062 6.66733 55.6855 7.12838 55.3798 7.43411C55.0895 7.72445 54.9492 8.05956 55.0681 8.17885C55.1874 8.29778 55.0748 8.39538 54.8184 8.39538C54.5619 8.39538 54.4556 8.49892 54.5822 8.62555C54.7089 8.75218 54.6483 9.05337 54.4479 9.29474C54.2475 9.53645 54.0026 10.179 53.9039 10.7234C53.707 11.8092 52.8405 12.9429 52.2074 12.9429C51.9856 12.9429 51.4983 13.1919 51.1247 13.4963C50.4751 14.0255 50.4744 14.0402 51.1072 13.838C51.6655 13.6596 51.7002 13.7093 51.3301 14.1553C51.0887 14.4464 50.7623 14.6048 50.6053 14.5076C50.4479 14.4103 50.2156 14.4985 50.089 14.7031C49.9315 14.9581 49.6814 14.9322 49.298 14.6216C48.915 14.311 48.8178 14.3008 48.9909 14.5894C49.1497 14.8542 48.8485 15.2166 48.1835 15.5605C47.5819 15.8715 47.1226 15.9537 47.1226 15.7504C47.1226 15.5531 46.9701 15.3915 46.7836 15.3915C46.5975 15.3915 46.5332 15.621 46.6406 15.9016C46.7714 16.2419 46.5346 16.4875 45.9301 16.6393C45.4316 16.7642 45.0237 17.0069 45.0237 17.1784C45.0237 17.3501 44.8569 17.4904 44.6533 17.4904C44.4497 17.4904 44.3951 17.3085 44.5323 17.0864C44.6872 16.8362 44.6285 16.7775 44.3783 16.9324C44.1562 17.0696 43.9743 17.3893 43.9743 17.6432C43.9743 17.8969 43.7382 18.3002 43.4496 18.5398C43.0211 18.8952 42.9249 18.8749 42.9249 18.4282C42.9249 18.1277 43.0848 17.7825 43.2803 17.6618C43.4758 17.5408 43.5455 17.2955 43.4346 17.1164C43.324 16.9373 43.4003 16.7908 43.6039 16.7908C43.8075 16.7908 43.9537 16.6725 43.9288 16.5284C43.8159 15.8792 44.8807 13.9916 45.3627 13.9871C45.8363 13.9822 45.8374 13.9423 45.3735 13.6425C44.9073 13.341 44.9073 13.2983 45.3735 13.2567C45.6621 13.2308 46.0557 13.2399 46.2481 13.2762C46.4405 13.3126 46.417 13.1584 46.1956 12.9327C45.7664 12.4958 45.8356 12.38 47.8554 10.1584C48.4099 9.54835 49.0122 9.14047 49.1935 9.25241C49.3746 9.3647 49.6366 9.272 49.7759 9.04672C49.9431 8.77597 49.8766 8.7312 49.58 8.91485C49.2812 9.09919 49.1829 9.02958 49.2861 8.70636C49.3715 8.43911 49.7857 8.06516 50.2061 7.87522C50.6266 7.68527 50.9705 7.40962 50.9705 7.26305C50.9705 7.11614 51.2066 6.99615 51.4952 6.99615C51.7838 6.99615 52.0199 6.83874 52.0199 6.64634C52.0199 6.45395 52.256 6.29654 52.5446 6.29654C52.8332 6.29654 53.0693 6.16781 53.0693 6.01004C53.0693 5.79736 54.6354 4.83329 55.4088 4.56989C55.4449 4.55764 55.4634 4.8228 55.4494 5.15966ZM56.5674 5.59692C56.5674 5.78932 56.4005 5.94673 56.1969 5.94673C55.9934 5.94673 55.9237 5.78932 56.0427 5.59692C56.1616 5.40453 56.3281 5.24711 56.4131 5.24711C56.4981 5.24711 56.5674 5.40453 56.5674 5.59692ZM62.1993 11.297C61.7568 12.0341 61.7645 12.0414 62.3669 11.4646C62.7135 11.1323 62.922 10.7853 62.83 10.6933C62.738 10.6013 62.4543 10.8731 62.1993 11.297ZM52.363 12.0764C51.9933 12.5217 52.015 12.5731 52.4953 12.3888C52.8108 12.2674 53.0693 12.0278 53.0693 11.856C53.0693 11.4062 52.8668 11.4695 52.363 12.0764ZM71.8715 12.4748C72.1121 12.5721 72.5057 12.5721 72.746 12.4748C72.9867 12.3779 72.7897 12.2985 72.3087 12.2985C71.8277 12.2985 71.6311 12.3779 71.8715 12.4748ZM62.5897 15.479C63.1581 16.0366 63.2137 16.9338 63.2137 25.536C63.2137 31.3952 63.085 34.9808 62.8748 34.9808C62.6887 34.9808 62.6247 34.7055 62.7331 34.3686C62.8937 33.8694 62.8636 33.8502 62.5701 34.2643C62.3724 34.5438 62.2832 34.8902 62.3721 35.0339C62.6908 35.5499 61.075 36.0771 59.9574 35.8217C59.3435 35.6814 58.3689 35.5481 57.7917 35.5254C57.132 35.4995 56.778 35.3162 56.8385 35.0315C56.8917 34.781 56.764 34.6845 56.5523 34.8149C56.3362 34.9486 56.0871 34.7324 55.9783 34.3165C55.8727 33.9121 55.5876 33.5815 55.3452 33.5815C55.1024 33.5815 54.6879 33.3195 54.4238 32.9994C53.9862 32.4688 54.0211 32.4551 54.8184 32.8445L55.6929 33.2712L54.8184 32.5125C53.9466 31.7562 53.9438 31.7328 53.9438 25.5335C53.9438 20.1003 54.0211 19.2275 54.556 18.6367C54.8925 18.2645 55.1682 17.7048 55.1682 17.3928C55.1682 17.0808 55.3766 16.6998 55.6317 16.5459C55.8867 16.392 56.1875 16.0149 56.2998 15.7081C56.4243 15.367 56.9385 15.1376 57.621 15.1183C58.2353 15.1008 58.8338 14.9907 58.9506 14.8738C59.3756 14.4492 61.9814 14.8822 62.5897 15.479ZM66.8874 15.0407C66.7499 15.2628 67.0221 15.2562 67.6381 15.0221C68.1953 14.8102 69.2031 14.7633 70.0192 14.9116C70.7976 15.0529 71.5916 15.1946 71.784 15.2268C71.9764 15.2586 72.2912 15.3114 72.4836 15.3436C72.676 15.3758 72.5973 15.5549 72.3087 15.7413C71.8638 16.0289 71.8802 16.0814 72.4168 16.0859C72.7649 16.0887 72.9517 16.2496 72.832 16.4434C72.7121 16.6372 72.8604 16.8901 73.1612 17.0055C73.4617 17.121 73.7192 17.4739 73.7324 17.7902C73.7517 18.239 73.823 18.2117 74.0578 17.6653C74.2732 17.1637 74.3778 17.114 74.4275 17.4904C74.4656 17.779 74.558 18.4086 74.6325 18.8896C74.707 19.3706 74.7556 20.4725 74.7402 21.3383C74.7252 22.204 74.7304 23.2272 74.7521 23.612C74.9501 27.1248 74.7983 30.9443 74.4562 31.0584C74.2369 31.1315 74.0578 31.4236 74.0578 31.7073C74.0578 31.9913 74.2152 32.1263 74.4076 32.0074C74.6 31.8885 74.7574 31.9581 74.7574 32.1617C74.7574 32.3652 74.474 32.5321 74.1277 32.5321C73.3568 32.5321 72.6603 33.1845 72.6533 33.9138C72.64 35.2379 72.2769 35.4156 68.6553 35.8679C66.8129 36.098 66.624 36.0638 66.8272 35.5345C66.9609 35.1861 66.9119 35.0318 66.708 35.1581C66.5177 35.2756 66.362 35.1263 66.362 34.8265C66.362 34.5267 66.1951 34.2811 65.9916 34.2811C65.788 34.2811 65.7184 34.4386 65.8373 34.6309C65.9562 34.8233 65.8866 34.9808 65.683 34.9808C65.1331 34.9808 65.1713 15.8701 65.7219 15.5297C65.9972 15.3597 66.058 15.4674 65.9076 15.8589C65.7848 16.1789 65.8369 16.441 66.023 16.441C66.2095 16.441 66.362 16.0474 66.362 15.5664C66.362 15.0855 66.5289 14.6919 66.7324 14.6919C66.936 14.6919 67.006 14.849 66.8874 15.0407ZM52.179 17.4383C51.64 18.742 51.3839 29.331 51.8555 30.8163C52.0028 31.2798 51.924 31.6758 51.6508 31.8444C51.3059 32.0574 51.3392 32.2512 51.8002 32.7123C52.2574 33.1695 52.3015 33.4171 51.9923 33.7897C51.7715 34.0559 51.4196 34.1678 51.2104 34.0384C50.9453 33.8743 50.9572 33.761 51.25 33.6634C51.9769 33.421 51.7061 32.9949 50.883 33.0862C50.45 33.1341 50.0564 33.1866 50.0085 33.2027C49.7493 33.2891 49.5747 33.2058 49.601 33.0085C49.6639 32.5391 48.6995 32.2393 48.2714 32.5951C47.952 32.8599 47.8222 32.856 47.8222 32.5814C47.8222 32.3694 47.4287 32.0969 46.9477 31.9763C46.4667 31.8556 46.0732 31.6345 46.0732 31.4855C46.0732 31.3365 45.738 31.1269 45.3281 31.0195C44.8429 30.8926 44.6536 30.6407 44.7855 30.2972C44.9136 29.9635 44.8257 29.8316 44.5466 29.9386C43.926 30.1768 42.7955 28.8262 43.0533 28.1543C43.1708 27.8485 43.1274 27.6845 42.9574 27.7894C42.5058 28.0686 42.1053 26.9772 42.0245 25.2477C41.9748 24.1892 42.1085 23.6757 42.4688 23.5375C42.8892 23.3759 42.898 23.2856 42.517 23.0439C42.1676 22.8225 42.1602 22.7469 42.4876 22.7427C42.7283 22.7399 42.9249 22.5014 42.9249 22.2128C42.9249 21.7395 43.3401 21.5328 44.0618 21.6468C44.2059 21.6695 44.2892 21.5698 44.2465 21.4257C44.0667 20.8198 45.4435 19.2884 45.9822 19.4948C46.3506 19.6361 46.4524 19.57 46.2848 19.2989C46.133 19.0533 46.2498 18.8896 46.5772 18.8896C46.877 18.8896 47.1226 18.7228 47.1226 18.5192C47.1226 18.3156 47.28 18.246 47.4724 18.3649C47.6648 18.4838 47.8222 18.4251 47.8222 18.2341C47.8222 17.9497 48.484 17.5971 49.5712 17.3025C49.6674 17.2763 49.9823 17.163 50.2709 17.0507C51.9576 16.3934 52.5603 16.5158 52.179 17.4383ZM78.2555 16.9751C79.0681 17.0696 81.0539 17.9654 81.0539 18.2379C81.0539 18.4265 81.2113 18.4838 81.4037 18.3649C81.5961 18.246 81.7535 18.3156 81.7535 18.5192C81.7535 18.7228 81.9897 18.8896 82.2782 18.8896C82.5668 18.8896 82.803 19.047 82.803 19.2394C82.803 19.4318 83.0335 19.5892 83.3154 19.5892C83.8149 19.5892 84.7706 20.9146 84.6303 21.4131C84.5919 21.5506 84.7948 21.573 85.0809 21.4631C85.367 21.3533 85.6014 21.4247 85.6014 21.6216C85.6014 21.8185 85.4517 22.0319 85.2688 22.0963C85.0862 22.1603 85.2541 22.6063 85.642 23.0873L86.3479 23.9618L85.9645 23.0873L85.5811 22.2128L86.1699 23.0166C86.6613 23.6876 86.9156 25.7759 86.6365 26.8477C86.5987 26.9919 86.5847 27.2224 86.6054 27.3598C86.6256 27.4973 86.4081 27.5197 86.1219 27.4099C85.8358 27.3 85.6014 27.3843 85.6014 27.5974C85.6014 27.8104 85.7984 27.9948 86.0387 28.0066C86.2793 28.0189 86.1321 28.1676 85.7116 28.3369C85.2915 28.5062 84.7713 29.0078 84.5555 29.4517C84.1826 30.2192 84.1896 30.2258 84.7042 29.5843C85.0011 29.2135 85.324 28.99 85.4216 29.0872C85.5189 29.1848 85.1802 29.6455 84.6692 30.1111C84.1578 30.577 83.8657 30.7407 84.0196 30.4752C84.2113 30.145 84.1462 30.0439 83.8136 30.1548C83.5463 30.2437 83.3252 30.4609 83.3224 30.6372C83.3126 31.2242 82.7592 31.8468 82.429 31.6425C82.2499 31.532 82.1019 31.5687 82.1005 31.7244C82.0963 32.1662 80.3606 32.8623 79.7999 32.6472C79.4312 32.5059 79.3595 32.628 79.5316 33.1054C79.6606 33.4633 79.6424 33.6445 79.4913 33.5081C79.3399 33.3713 78.7592 33.4958 78.2009 33.7848C76.9199 34.4469 76.3738 34.1367 76.6985 32.9312C77.3565 30.4875 77.6762 22.8089 77.1952 21.0038C76.9626 20.1311 76.992 19.718 77.3019 19.5172C77.5999 19.3244 77.616 19.1593 77.3554 18.9771C76.3322 18.2621 76.6516 16.045 77.6828 16.7019C77.9015 16.8411 78.1593 16.9639 78.2555 16.9751ZM50.905 17.3795C51.1573 17.4806 51.4591 17.468 51.5753 17.3519C51.6914 17.2357 51.485 17.1532 51.1163 17.1682C50.7088 17.185 50.6259 17.2679 50.905 17.3795ZM54.6798 18.0952C54.3244 18.4509 54.0309 17.9154 54.3227 17.4435C54.5431 17.0867 54.6256 17.0867 54.7438 17.4421C54.825 17.6852 54.796 17.9791 54.6798 18.0952ZM85.2516 32.8819C84.7762 33.2405 84.3064 33.444 84.2074 33.3349C84.1084 33.2254 84.233 33.0628 84.4841 32.9732C84.7353 32.8837 85.1288 32.6063 85.3587 32.3568C85.5885 32.1071 85.8526 31.9766 85.946 32.0665C86.0394 32.1564 85.727 32.5234 85.2516 32.8819ZM45.1112 33.3688C45.4477 33.6245 45.7234 34.0391 45.7234 34.2906C45.7234 34.5417 45.822 34.6488 45.9427 34.5285C46.0634 34.4078 46.594 34.5327 47.1226 34.8059C47.6511 35.0791 48.1818 35.2039 48.3025 35.0832C48.4232 34.9629 48.5218 35.057 48.5218 35.2928C48.5218 35.5286 48.6684 35.631 48.8475 35.5205C49.0266 35.4096 49.2718 35.4792 49.3928 35.6748C49.5135 35.8703 49.8553 36.0302 50.1516 36.0302C50.4482 36.0302 51.4095 36.7385 52.2875 37.6043C53.1659 38.4701 53.7602 39.1784 53.6087 39.1784C53.4572 39.1784 53.5293 39.4146 53.7689 39.7032C54.0383 40.0278 54.0642 40.2279 53.8361 40.2279C53.4586 40.2279 53.8599 42.1994 54.3262 42.6366C54.4524 42.7549 54.4409 42.4579 54.301 41.9769C54.0537 41.1276 54.0624 41.1227 54.5962 41.802C54.8985 42.1868 55.151 42.687 55.157 42.914C55.1633 43.1407 55.3805 43.5388 55.6404 43.7984C56.0367 44.1947 56.0259 44.3514 55.5739 44.774C55.1017 45.2151 55.0625 45.2053 55.2588 44.6942C55.4193 44.2755 55.3368 44.1674 54.9649 44.3098C54.641 44.4343 54.5158 44.7873 54.6298 45.2539C54.7298 45.6642 54.7211 45.8021 54.6102 45.5603C54.4993 45.3186 54.265 45.2098 54.089 45.3186C53.9131 45.4274 53.7689 45.3494 53.7689 45.1458C53.7689 44.9422 53.5723 44.7729 53.3317 44.7701C53.0914 44.767 52.6583 44.6096 52.3697 44.4203C51.9401 44.1384 51.9296 44.0212 52.3116 43.7746C52.6856 43.5332 52.6646 43.43 52.206 43.2541C51.8716 43.1257 51.7225 43.1781 51.8474 43.38C51.965 43.5703 51.7988 43.7259 51.4784 43.7259C51.1132 43.7259 50.9684 43.5367 51.0901 43.2191C51.2202 42.8801 51.1167 42.7766 50.7777 42.9067C50.4989 43.0137 50.2709 42.927 50.2709 42.714C50.2709 42.5009 50.0827 42.3267 49.8528 42.3267C49.2795 42.3267 47.4724 40.5528 47.4724 39.9903C47.4724 39.7395 47.1576 39.3376 46.7728 39.0973C46.388 38.857 46.0732 38.462 46.0732 38.2196C46.0732 37.9776 45.9157 37.7792 45.7234 37.7792C45.531 37.7792 45.3735 37.5431 45.3735 37.2545C45.3735 36.9659 45.2067 36.7298 45.0031 36.7298C44.7995 36.7298 44.7299 36.5724 44.8488 36.38C44.9678 36.1876 44.8891 36.0302 44.6739 36.0302C44.4588 36.0302 44.3801 35.8728 44.499 35.6804C44.618 35.488 44.5655 35.3306 44.3822 35.3306C44.1989 35.3306 43.9519 35.077 43.833 34.767C43.6553 34.3042 43.7847 34.2455 44.556 34.4393C45.3903 34.6484 45.4435 34.6117 45.0286 34.1122C44.7719 33.803 44.3591 33.6277 44.1111 33.7229C43.8284 33.8313 43.7326 33.7068 43.8547 33.3888C44.0919 32.771 44.3189 32.7672 45.1112 33.3688ZM77.206 33.6022C77.206 33.8058 77.3634 33.8754 77.5558 33.7564C77.7482 33.6375 77.9056 33.471 77.9056 33.386C77.9056 33.301 77.7482 33.2317 77.5558 33.2317C77.3634 33.2317 77.206 33.3986 77.206 33.6022ZM84.6356 34.8933C84.1315 35.8074 83.5715 36.6553 83.391 36.7781C83.2108 36.9008 83.1612 37.1601 83.2808 37.3535C83.4004 37.5473 83.2633 37.796 82.9758 37.9065C82.6882 38.0167 82.4531 38.348 82.4531 38.6429C82.4531 38.9374 82.2845 39.1784 82.0785 39.1784C81.5989 39.1784 80.66 40.1114 80.5747 40.6721C80.4722 41.3483 79.9986 41.9769 79.5914 41.9769C79.371 41.9769 79.4151 41.7355 79.6995 41.385C80.0307 40.9765 80.043 40.875 79.7397 41.0573C79.4976 41.2028 79.053 41.7992 78.7511 42.3827C78.3677 43.1246 78.0116 43.394 77.5681 43.2778C77.219 43.1869 76.7195 43.2649 76.4578 43.452C76.094 43.7116 76.1262 43.7455 76.5939 43.5951C76.9304 43.4867 77.206 43.5507 77.206 43.7368C77.206 43.9232 76.9699 44.0758 76.6813 44.0758C76.3927 44.0758 76.1566 44.215 76.1566 44.3846C76.1566 44.8607 74.8613 45.0891 74.4566 44.6844C74.2103 44.4382 74.1599 44.5658 74.297 45.0898C74.4069 45.5103 74.3589 45.8143 74.19 45.7653C74.021 45.7164 73.5289 45.8727 73.0958 46.1127C72.6627 46.3526 72.3087 46.4453 72.3087 46.3191C72.3087 46.1924 72.0726 46.2848 71.784 46.5244C71.4954 46.764 71.2593 46.8515 71.2593 46.7192C71.2593 46.2148 71.9991 45.1252 72.3416 45.1252C72.5386 45.1252 72.5875 45.3071 72.4504 45.5292C72.3035 45.7664 72.3535 45.8384 72.5718 45.7038C72.7757 45.5775 72.8534 45.1332 72.7442 44.7159C72.5819 44.095 72.6603 44.0016 73.1766 44.1996C73.7094 44.4042 73.7384 44.3591 73.3648 43.9089C73.0384 43.5154 73.0307 43.3761 73.3361 43.3761C73.5631 43.3761 73.6597 43.2313 73.5505 43.0547C73.441 42.8777 73.5817 42.503 73.8629 42.2218C74.1442 41.9405 74.2767 41.6131 74.1578 41.4938C74.0385 41.3749 74.1249 41.2773 74.3492 41.2773C74.5737 41.2773 74.7402 41.1591 74.7196 41.0149C74.6182 40.3118 75.2527 39.1753 75.7603 39.1508C76.1227 39.1333 76.1717 39.0588 75.8943 38.9469C75.2947 38.7048 75.3454 38.2466 75.9999 37.9954C76.3651 37.8555 76.4616 37.9289 76.2944 38.2203C76.158 38.4589 76.434 38.2602 76.9083 37.7792C77.3823 37.2982 77.6926 36.6686 77.5975 36.38C77.4474 35.9235 77.5041 35.9196 78.0347 36.3517C78.5405 36.7634 78.6266 36.7662 78.5374 36.3677C78.4786 36.1033 78.6273 35.8602 78.8676 35.8273C79.1083 35.7948 79.4228 35.7293 79.5672 35.6828C79.7117 35.6359 79.9475 35.616 80.0919 35.6391C80.2364 35.6618 80.3543 35.5037 80.3543 35.2879C80.3543 35.015 80.5135 35.0269 80.8748 35.3271C81.2963 35.6769 81.4366 35.652 81.6112 35.1969C81.7297 34.8881 81.9676 34.7219 82.1401 34.8286C82.3122 34.9349 82.4556 34.7373 82.4584 34.3892C82.4629 33.8628 82.5186 33.8428 82.7897 34.2713C83.0671 34.71 83.1503 34.6943 83.3539 34.164C83.4854 33.8215 83.8037 33.6221 84.0612 33.7211C84.3187 33.8197 84.6227 33.7501 84.7363 33.5661C84.85 33.3821 85.0802 33.2317 85.2478 33.2317C85.415 33.2317 85.1397 33.9793 84.6356 34.8933ZM59.0741 37.9454C59.6195 37.979 60.459 38.0342 60.94 38.0678C61.421 38.1014 62.1293 38.4439 62.5141 38.8286C63.1308 39.4454 63.2106 39.9729 63.1861 43.2887C63.1711 45.3567 63.0791 46.8525 62.9822 46.6119C62.8849 46.3715 62.3857 46.1781 61.8729 46.1823L60.94 46.19L61.8145 46.92L62.689 47.6497L61.4895 46.9421C60.7896 46.529 60.2677 45.9304 60.2362 45.5051C60.2064 45.1038 60.0522 44.6575 59.8934 44.513C59.7342 44.3689 59.7045 44.5298 59.8269 44.8709C60.0161 45.3977 59.9455 45.4355 59.3578 45.121C58.9776 44.9174 58.6662 44.52 58.6662 44.2384C58.6662 43.9565 58.526 43.7259 58.3542 43.7259C58.1828 43.7259 57.9435 43.3324 57.8228 42.8514C57.7022 42.3704 57.4398 41.9769 57.2397 41.9769C57.0396 41.9769 56.9732 41.8195 57.0921 41.6271C57.211 41.4347 57.1323 41.2773 56.9172 41.2773C56.7021 41.2773 56.6234 41.1199 56.7423 40.9275C56.8612 40.7351 56.7916 40.5777 56.588 40.5777C56.3844 40.5777 56.2435 40.4594 56.2749 40.3153C56.3064 40.1712 56.213 39.629 56.0672 39.1109C55.7107 37.845 56.0654 37.378 57.1715 37.6554C57.6724 37.7813 58.5288 37.9118 59.0741 37.9454ZM72.9625 37.8988C73.1766 38.157 73.2354 38.4851 73.0926 38.6275C72.9503 38.7702 72.8296 38.992 72.8247 39.12C72.7929 39.9578 71.7165 41.6089 71.3055 41.4511C70.9553 41.3168 70.8707 41.5019 70.9921 42.1361C71.0834 42.6143 71.0235 42.9221 70.8591 42.8203C70.6944 42.7185 70.5597 42.9595 70.5597 43.3555C70.5597 43.7515 70.3704 44.0758 70.1392 44.0758C69.5365 44.0758 67.4114 46.2155 67.4114 46.8221C67.4114 47.2286 67.2687 47.2034 66.7118 46.6993C66.3151 46.3404 66.0122 46.2411 66.0122 46.4702C66.0122 46.6923 66.1696 46.8742 66.362 46.8742C67.028 46.8742 66.7087 47.4252 66.0122 47.4776C65.3511 47.5273 65.3126 47.3146 65.3126 43.607C65.3126 40.1166 65.3899 39.6178 66.0122 39.0847C66.397 38.7552 66.7118 38.6268 66.7118 38.7993C66.7118 38.9717 67.0399 39.027 67.4412 38.9224C67.9253 38.7958 68.0313 38.6457 67.7563 38.4757C67.5118 38.3246 67.8602 38.1227 68.6071 37.9825C69.3028 37.852 70.0122 37.832 70.1836 37.9377C70.355 38.0437 70.8637 37.9828 71.3146 37.802C72.4284 37.3559 72.5162 37.3608 72.9625 37.8988ZM60.7651 38.8286C61.2461 38.9826 61.8757 39.1221 62.1643 39.1382C62.6306 39.1645 62.6306 39.1302 62.1643 38.8286C61.8757 38.6422 61.2461 38.503 60.7651 38.5191L59.8906 38.5484L60.7651 38.8286ZM69.3375 45.4729C68.988 45.8587 68.5416 46.1746 68.3458 46.1746C68.1495 46.1746 68.3584 45.7818 68.8093 45.3015C69.7719 44.2769 70.2725 44.4396 69.3375 45.4729ZM57.0571 45.8598C57.3877 46.5227 57.4318 46.8064 57.1701 46.5891C56.935 46.3939 56.5849 46.2064 56.3925 46.1728C56.2001 46.1389 55.8066 45.9609 55.518 45.7765C55.1447 45.5383 55.2448 45.5114 55.865 45.6835C56.644 45.9 56.686 45.8647 56.2596 45.3504C55.9846 45.0192 55.9377 44.7754 56.149 44.7754C56.3509 44.7754 56.7598 45.2634 57.0571 45.8598ZM7.75804 60.3747C7.5716 60.6647 7.06542 60.9277 6.63236 60.9589C6.1993 60.99 5.84529 61.1656 5.84529 61.3489C5.84529 61.5325 5.7484 61.5861 5.63051 61.4678C5.51228 61.3496 4.71297 61.9135 3.85454 62.7212C2.99611 63.5289 2.14818 64.2422 1.97048 64.3062C1.79277 64.3705 1.6476 64.6409 1.6476 64.9075C1.6476 65.2167 1.43597 65.3108 1.06203 65.1674C0.613573 64.9953 0.531018 65.0838 0.708371 65.5462C0.835701 65.8782 0.80072 66.064 0.630713 65.959C0.460707 65.8537 0.221088 66.0297 0.0983052 66.3501C-0.0244773 66.6702 0.0545788 67.0431 0.273908 67.1788C0.519823 67.331 0.54256 67.5062 0.332676 67.6356C-0.194834 67.9617 -0.0619077 72.8166 0.498484 73.687C0.890968 74.2967 0.896567 74.4737 0.52822 74.6213C0.231233 74.7402 0.282302 74.8133 0.674786 74.8312C1.08756 74.8501 1.20579 75.0411 1.05258 75.4409C0.902162 75.8323 0.96303 75.9401 1.23833 75.7701C1.48249 75.6193 1.6476 75.7323 1.6476 76.0503C1.6476 76.3434 1.97083 76.7562 2.36611 76.9678C2.76104 77.1791 3.39 77.8535 3.76394 78.4667C4.13753 79.0796 4.44641 79.3451 4.45026 79.0565C4.45411 78.7417 4.5594 78.6745 4.71367 78.8886C4.97917 79.2573 6.67084 80.1196 7.59433 80.3568C8.54616 80.6013 11.9554 80.5565 12.5791 80.2913C12.916 80.1483 13.4274 80.1217 13.716 80.2326C14.0046 80.3431 14.2407 80.2861 14.2407 80.1059C14.2407 79.9258 14.4862 79.8723 14.7864 79.9874C15.1505 80.1273 15.3964 79.9496 15.5266 79.4518C15.634 79.0418 16.0013 78.7067 16.343 78.7067C17.3735 78.7067 17.4022 77.7769 16.4049 76.6971C15.8879 76.1374 15.2845 75.3765 15.0641 75.0068C14.7217 74.4328 14.5936 74.4058 14.1896 74.8228C13.788 75.237 13.8171 75.2758 14.3775 75.0771C14.9445 74.8763 14.9746 74.9207 14.5873 75.387C14.339 75.6865 13.9724 75.8771 13.7726 75.8106C13.5732 75.7442 13.1444 75.9551 12.8198 76.2801C12.003 77.0965 8.42128 77.1126 7.94764 76.3018C7.75944 75.9792 7.61112 75.9177 7.60483 76.1598C7.59048 76.7464 6.54491 76.2997 6.54491 75.7068C6.54491 75.4451 6.32768 75.3139 6.06217 75.4157C5.35696 75.6865 3.68873 72.6197 4.22464 72.038C4.52022 71.7172 4.51917 71.6647 4.22044 71.8323C4.00006 71.9554 3.72441 71.8081 3.60827 71.5049C3.30289 70.709 3.34837 69.6117 3.68663 69.6117C3.84649 69.6117 3.96438 69.2601 3.94899 68.8306C3.93254 68.3594 4.12949 68.047 4.44606 68.0435C4.73465 68.0404 4.97322 67.8802 4.97602 67.6878C4.97917 67.4954 5.1065 67.1414 5.25902 66.9007C5.42553 66.6387 5.36676 66.4634 5.1121 66.4634C4.8438 66.4634 4.91236 66.2147 5.29924 65.7873C5.63576 65.4158 6.13248 65.1964 6.40289 65.3C6.69987 65.414 6.89472 65.266 6.89472 64.9267C6.89472 64.6175 7.01295 64.3831 7.15707 64.4059C7.30119 64.429 7.53766 64.409 7.68178 64.3621C7.8259 64.3156 8.06237 64.2446 8.2065 64.2047C8.35062 64.1652 8.90121 64.0106 9.43012 63.8612C9.95868 63.7119 10.667 63.7157 11.0043 63.8696C11.3411 64.0235 11.7745 64.168 11.9669 64.1904C13.0909 64.3212 13.8909 64.8396 13.8909 65.4375C13.8909 66.193 14.4355 66.3518 14.7098 65.6764C14.843 65.3472 14.9788 65.3689 15.2583 65.7638C15.5689 66.2032 15.6301 66.1693 15.6347 65.5557C15.6406 64.7165 16.7806 63.5321 17.2025 63.9266C17.3571 64.0714 17.2976 63.8322 17.0703 63.3953C16.8429 62.9584 16.7512 62.4487 16.8663 62.2626C16.9814 62.0761 16.8541 62.009 16.583 62.1129C15.9023 62.3742 13.4854 60.8994 13.7677 60.395C13.9216 60.1207 13.8485 60.1263 13.539 60.4128C13.2731 60.6587 12.8519 60.7189 12.5256 60.558C12.2184 60.4062 11.1799 60.2953 10.2179 60.3117C9.25592 60.3282 8.3849 60.2306 8.28275 60.0945C8.18026 59.9584 7.94414 60.0847 7.75804 60.3747ZM22.4612 61.8631V63.8399H27.7083C31.4841 63.8399 32.934 63.9532 32.8791 64.2436C32.8372 64.4657 33.0635 64.8592 33.3818 65.1181C33.8848 65.527 33.9306 65.5085 33.7316 64.9768C33.6053 64.6399 33.6515 64.3646 33.8341 64.3646C34.2581 64.3646 34.6212 65.7904 34.4704 66.8629C34.299 68.0827 33.3556 68.6361 31.9105 68.365C31.1042 68.2139 30.6816 68.2681 30.6816 68.5235C30.6816 68.7865 29.3517 68.9121 26.5672 68.9121H22.4528L22.6319 70.8563L22.811 72.8002L26.3968 72.8677C28.5093 72.9072 30.053 72.7911 30.1541 72.5851C30.2482 72.3927 30.2377 72.5886 30.1307 73.0202C29.9796 73.6299 30.0583 73.758 30.484 73.595C30.7852 73.4792 31.0314 73.5589 31.0314 73.772C31.0314 74.4184 31.1364 74.664 31.6188 75.146C31.8727 75.4003 32.0809 75.8334 32.0809 76.108C32.0809 76.8744 32.1676 77.0944 32.6682 77.5947C32.9221 77.849 33.1303 78.3607 33.1303 78.7315C33.1303 79.1027 33.3286 79.4063 33.5707 79.4063C33.8131 79.4063 34.208 79.7211 34.4484 80.1059C34.7992 80.6677 35.2641 80.8055 36.8061 80.8055C37.8628 80.8055 38.7272 80.6481 38.7272 80.4557C38.7272 80.2633 38.5604 80.1059 38.3568 80.1059C38.1532 80.1059 38.0836 79.9485 38.2025 79.7561C38.3214 79.5637 38.2623 79.4063 38.071 79.4063C37.8796 79.4063 37.5239 78.8554 37.2804 78.182C37.0369 77.5086 36.7025 76.9577 36.5374 76.9577C36.3723 76.9577 36.3345 76.8002 36.4535 76.6079C36.5724 76.4155 36.4937 76.258 36.2786 76.258C36.0634 76.258 35.9847 76.1006 36.1036 75.9082C36.2226 75.7158 36.1925 75.5577 36.0368 75.557C35.6534 75.5553 34.3903 72.4326 34.6628 72.1604C34.7821 72.0411 34.8793 72.2153 34.8793 72.5473C34.8793 72.8793 35.0297 73.058 35.2137 72.9443C35.3977 72.8306 35.4597 72.5064 35.3512 72.2241C35.1725 71.7578 35.7944 71.5133 36.7417 71.6777C36.9005 71.7053 36.9306 71.5664 36.8085 71.3695C36.6868 71.1722 36.7487 71.0109 36.9467 71.0109C37.1443 71.0109 37.2153 70.7748 37.1048 70.4862C36.9939 70.1976 37.087 69.9615 37.3112 69.9615C37.5354 69.9615 37.6218 69.8041 37.5029 69.6117C37.3839 69.4193 37.4627 69.2619 37.6778 69.2619C37.8929 69.2619 37.9716 69.1045 37.8527 68.9121C37.7338 68.7197 37.7638 68.5623 37.9195 68.5623C38.3914 68.5623 38.1976 64.1166 37.6995 63.5163C37.448 63.2134 37.37 62.9654 37.526 62.9654C38.0801 62.9654 36.1047 61.3821 34.8412 60.8133C33.8481 60.3666 32.3467 60.2243 28.2116 60.1851C25.2719 60.1571 22.7753 60.0784 22.6637 60.0105C22.5525 59.9423 22.4612 60.7759 22.4612 61.8631ZM63.7762 60.3698C63.6594 60.6745 63.5635 65.1478 63.5635 70.3106C63.5635 77.4932 63.4607 79.7393 63.1263 79.8744C62.7901 80.0101 62.7947 80.057 63.1469 80.0783C63.3988 80.0933 63.5216 80.2406 63.4198 80.4054C63.318 80.5698 63.6237 80.6303 64.0987 80.5393C64.5741 80.4484 64.9628 80.1671 64.9628 79.9139C64.9628 79.6606 65.2629 79.358 65.6302 79.2416C65.9971 79.1251 66.3896 78.7896 66.5023 78.4965C66.6146 78.203 66.8654 78.0606 67.0592 78.1806C67.2886 78.3223 67.4114 76.8076 67.4114 73.83C67.4114 70.7035 67.5346 69.2619 67.8015 69.2619C68.0159 69.2619 68.7145 69.8328 69.3536 70.5303C69.9923 71.2282 70.8675 71.9757 71.2978 72.1919C71.728 72.4081 72.3409 73.0573 72.6599 73.6345C72.979 74.2117 73.5418 74.7402 73.9112 74.8091C74.2802 74.8777 74.7794 75.0939 75.0197 75.2891C75.5696 75.7354 75.5983 76.3868 75.053 76.0499C74.7948 75.8901 74.7444 75.9544 74.9137 76.228C75.0589 76.463 75.3982 76.5711 75.6672 76.4679C75.9495 76.3595 76.1566 76.4973 76.1566 76.7936C76.1566 77.0762 76.3291 77.3075 76.54 77.3075C77.1154 77.3075 78.9551 78.699 78.9551 79.1345C78.9551 79.3437 78.6116 79.215 78.1921 78.8484L77.4289 78.182L78.1047 79.1331C78.7322 80.0164 78.9407 80.1546 79.5281 80.0762C79.6508 80.0598 79.8751 80.2462 80.0262 80.4907C80.2284 80.8181 80.4236 80.8339 80.765 80.5509C81.1379 80.2417 81.1945 78.2268 81.0539 70.2585C80.8937 61.189 80.8272 60.3408 80.2682 60.2334C79.8191 60.1473 79.7173 60.2725 79.8838 60.7067C80.0717 61.1964 79.9671 61.2531 79.2702 61.0383C78.8085 60.8959 78.543 60.8987 78.6805 61.0439C79.0908 61.478 78.2827 62.6156 77.5642 62.6156C77.1976 62.6156 76.8013 62.7712 76.6838 62.9615C76.5613 63.1595 76.7016 63.2183 77.0129 63.099C77.488 62.9164 77.5558 63.5149 77.5558 67.8837C77.5558 70.6296 77.438 72.7586 77.2935 72.6141C77.149 72.47 77.0115 72.2076 76.9874 72.0313C76.9633 71.855 76.9241 71.5531 76.9 71.3607C76.8758 71.1684 76.6894 71.0109 76.4858 71.0109C76.2822 71.0109 76.2126 71.1684 76.3315 71.3607C76.4504 71.5531 76.4246 71.7105 76.2741 71.7105C75.9026 71.7105 72.6585 68.195 72.6585 67.7924C72.6585 67.6161 72.4994 67.5699 72.3049 67.6902C71.9376 67.9172 70.73 66.8202 69.0289 64.7144C68.485 64.041 68.1541 63.7031 68.2936 63.9637C68.8302 64.9659 66.8122 63.2868 65.4126 61.5661C64.3244 60.2281 63.9385 59.9462 63.7762 60.3698ZM40.0481 60.3621C39.9407 60.4691 40.308 61.0554 40.8642 61.6644C41.4204 62.2731 41.8755 62.9776 41.8755 63.2291C41.8755 63.481 42.1116 63.7776 42.4002 63.8882C42.6888 63.999 42.9249 64.2922 42.9249 64.5395C42.9249 64.7868 43.196 65.0932 43.5273 65.2206C44.0334 65.4147 44.0495 65.5011 43.6266 65.7624C43.231 66.0069 43.3265 66.1507 44.0737 66.4348C44.5963 66.6334 45.0237 66.9511 45.0237 67.1407C45.0237 67.3303 45.3777 67.8298 45.8108 68.2506C46.4072 68.8299 46.4506 68.9635 45.991 68.8016C45.4739 68.62 45.4442 68.6851 45.7909 69.2399C46.0147 69.5984 46.3901 69.8181 46.6248 69.7278C46.8595 69.6376 47.1558 69.732 47.2828 69.9377C47.4098 70.1431 47.3468 70.3113 47.1432 70.3113C46.9396 70.3113 46.7728 70.495 46.7728 70.7195C46.7728 70.9438 46.8763 71.0239 47.0029 70.8972C47.1296 70.7706 47.4444 70.8427 47.7026 71.0568C48.0524 71.3471 48.172 72.6379 48.172 76.1258V80.8055H50.1124H52.0528L51.9996 75.833C51.9639 72.4696 52.072 70.8185 52.3333 70.7314C52.567 70.6538 52.6377 70.8563 52.5117 71.2439C52.3557 71.7256 52.3886 71.7669 52.6436 71.4094C52.8307 71.1477 52.9063 70.638 52.8119 70.2767C52.7052 69.8685 52.8636 69.5344 53.2313 69.3934C53.5566 69.2685 53.9627 68.7973 54.1345 68.3465C54.3433 67.7969 54.6277 67.5958 54.9964 67.7374C55.299 67.8536 55.5215 67.8112 55.4907 67.6433C55.3301 66.7629 55.5918 66.1759 56.2176 66.0122C56.6499 65.8992 56.9172 65.535 56.9172 65.0597C56.9172 64.5224 57.0743 64.3499 57.4367 64.4891C57.7469 64.6081 58.1128 64.3954 58.3462 63.9595C58.6197 63.4481 58.6225 63.3008 58.3553 63.4659C58.1181 63.6129 58.053 63.4967 58.1828 63.1585C58.3776 62.6509 58.7981 62.4644 59.4795 62.583C59.6384 62.6107 59.6716 62.3277 59.553 61.9541C59.4344 61.5808 59.5012 61.174 59.7013 61.0502C59.9018 60.9263 60.0655 60.6773 60.0655 60.4961C60.0655 60.0536 55.9671 60.0728 55.6929 60.5167C55.3756 61.0299 54.7316 60.9445 55.0328 60.4293C55.1734 60.1889 54.9464 60.2918 54.5287 60.6584C54.1107 61.025 53.7689 61.6245 53.7689 61.9908C53.7689 62.357 53.6224 62.5662 53.4433 62.4557C53.2642 62.3448 53.0189 62.4144 52.8979 62.61C52.7772 62.8055 52.963 62.9703 53.311 62.9766C53.9113 62.987 53.9123 63.0115 53.3317 63.4523C52.9952 63.708 52.7195 64.091 52.7195 64.3034C52.7195 64.5161 52.4061 64.8575 52.0234 65.0625C51.6404 65.2671 51.3651 65.6022 51.4112 65.8068C51.5826 66.5656 50.3803 66.9756 49.3544 66.5079C48.6817 66.2014 48.5173 65.9828 48.8188 65.7964C49.3152 65.4899 48.8755 65.0247 47.6473 64.5563C46.9918 64.3062 46.9876 64.2747 47.5815 64.0526C48.1094 63.8549 48.0069 63.716 46.9694 63.2211C46.2841 62.8944 45.7234 62.3938 45.7234 62.1087C45.7234 61.8239 45.404 61.4199 45.0139 61.2111C44.6239 61.0022 44.3969 60.6818 44.5099 60.4992C44.7268 60.148 40.3951 60.0147 40.0481 60.3621ZM62.5194 60.5457C62.5225 60.8186 62.6803 61.2775 62.8702 61.5661C63.1445 61.9824 63.1934 61.9303 63.107 61.3129C62.9822 60.4181 62.5113 59.8034 62.5194 60.5457ZM64.613 60.3044C64.613 60.3799 64.8571 60.5356 65.1559 60.6503C65.4672 60.7696 65.6075 60.7108 65.485 60.5129C65.2797 60.1802 64.613 60.021 64.613 60.3044ZM93.2363 60.5545C93.0138 60.6916 92.5391 60.7476 92.1809 60.6787C91.8224 60.6098 91.6122 60.6871 91.7132 60.8508C91.9259 61.1946 89.9611 61.9614 89.6539 61.6543C89.5413 61.5416 89.4493 61.6424 89.4493 61.8782C89.4493 62.1139 89.3027 62.2164 89.1236 62.1059C88.9445 61.995 88.6843 62.0887 88.5451 62.314C88.3869 62.5697 88.4433 62.6299 88.6955 62.4739C89.3314 62.081 89.1667 62.7992 88.4873 63.3827C88.1508 63.672 87.5649 64.0197 87.1853 64.1554C86.6075 64.3621 86.5791 64.4552 87.0104 64.7277C87.439 64.9988 87.419 65.0544 86.8926 65.059C86.5183 65.0621 86.3577 65.223 86.5001 65.4532C86.6323 65.6669 86.5669 65.9492 86.3546 66.0804C86.003 66.2976 85.6938 67.3247 85.6273 68.4955C85.6119 68.7666 85.423 68.846 85.1642 68.6907C84.8353 68.493 84.8395 68.5668 85.1802 68.9876C85.4297 69.2955 85.6077 70.2309 85.5755 71.0662C85.5024 72.9754 85.7368 73.9206 86.5823 75.1285C86.9499 75.6536 87.1811 76.2801 87.0965 76.5204C87.0118 76.7611 87.1143 76.9577 87.3246 76.9577C87.5348 76.9577 88.2008 77.4299 88.8046 78.0071C89.4087 78.5843 90.0307 79.0565 90.187 79.0565C90.3434 79.0565 90.8157 79.4105 91.2361 79.8436C91.6566 80.2766 91.8745 80.4096 91.7206 80.1392C91.5132 79.7761 91.5681 79.7278 91.9312 79.9545C92.6151 80.3812 93.165 80.4799 95.5709 80.6072C96.7253 80.6681 97.937 80.5792 98.2634 80.4096C98.5898 80.2399 99.2474 80.0689 99.7249 80.0293C100.202 79.9898 100.516 79.8334 100.422 79.682C100.329 79.5305 100.498 79.4063 100.797 79.4063C101.097 79.4063 101.343 79.2521 101.343 79.0632C101.343 78.8746 101.716 78.6262 102.173 78.5119C102.629 78.3971 103.219 77.8826 103.484 77.3683C103.748 76.8538 104.047 76.3542 104.148 76.258C104.335 76.0789 105.291 74.1239 105.346 73.8094C105.363 73.7132 105.475 73.4771 105.596 73.2847C106.067 72.5333 105.701 67.3355 105.118 66.503C104.802 66.0524 104.627 65.4654 104.73 65.1989C104.832 64.9323 104.702 64.7144 104.439 64.7144C104.177 64.7144 103.753 64.2422 103.498 63.665C103.211 63.0171 102.772 62.6156 102.352 62.6156C101.977 62.6156 101.58 62.3805 101.47 62.0929C101.36 61.8054 101.129 61.6571 100.956 61.7638C100.784 61.8701 100.643 61.8012 100.643 61.6102C100.643 61.294 99.9236 60.9487 98.5443 60.6028C97.5141 60.3446 93.633 60.3093 93.2363 60.5545ZM108.803 60.7651C108.897 61.1096 109.085 61.8635 109.221 62.4407C109.443 63.3827 109.498 63.4184 109.754 62.7905C109.989 62.2126 110.043 62.1951 110.063 62.6908C110.077 63.0206 110.403 63.4589 110.788 63.665C111.172 63.871 111.487 64.275 111.487 64.5629C111.487 64.8505 111.723 65.1768 112.012 65.2874C112.3 65.3983 112.544 65.6687 112.552 65.8887C112.561 66.1087 112.795 66.7608 113.074 67.338C113.445 68.1093 113.524 68.167 113.37 67.5566C113.23 66.9976 113.288 66.8038 113.549 66.9651C113.762 67.0966 113.936 67.4142 113.936 67.671C113.936 67.9277 114.172 68.2282 114.461 68.3391C114.749 68.4496 114.985 68.712 114.985 68.9219C114.985 69.1314 114.83 69.207 114.639 69.0894C114.441 68.967 114.382 69.1069 114.501 69.4165C114.616 69.7142 114.818 69.8902 114.951 69.8076C115.085 69.7254 115.422 69.8079 115.702 69.9912C116.141 70.2795 116.134 70.3827 115.654 70.7552C115.349 70.9921 115.162 71.3719 115.238 71.5993C115.315 71.827 115.049 72.1891 114.647 72.4039C114.245 72.619 114.002 72.9338 114.107 73.1035C114.211 73.2731 113.94 73.6618 113.505 73.9672C113.068 74.2725 112.712 74.7161 112.712 74.9529C112.712 75.1897 112.357 75.4339 111.924 75.4955C111.491 75.5567 111.137 75.7627 111.137 75.9534C111.137 76.1437 111.295 76.2021 111.487 76.0831C112.097 75.7064 111.865 76.2045 111.099 76.9185C110.693 77.2966 110.103 77.5268 109.787 77.4303C109.381 77.3061 109.408 77.3781 109.878 77.6776C110.526 78.09 110.525 78.1138 109.828 78.6658C109.435 78.9768 109.007 79.5854 108.877 80.0185C108.652 80.772 108.729 80.8055 110.694 80.8055C111.824 80.8055 112.935 80.617 113.166 80.3858C113.493 80.0594 113.587 80.0786 113.591 80.4732C113.596 80.9056 113.643 80.9077 113.909 80.4876C114.08 80.2165 114.141 79.7855 114.043 79.5305C113.938 79.2563 114.238 78.9246 114.775 78.7203C115.275 78.5301 115.685 78.2824 115.685 78.1701C115.685 78.0578 115.527 78.0631 115.335 78.182C115.143 78.3009 114.985 78.2394 114.985 78.0452C114.985 77.8511 115.194 77.5663 115.449 77.4124C115.704 77.2585 116.014 76.8555 116.139 76.5173C116.263 76.1786 116.559 75.9425 116.796 75.9925C117.033 76.0422 117.234 75.7683 117.243 75.3835C117.255 74.8704 117.469 74.706 118.046 74.7672C118.559 74.8214 118.833 74.6622 118.833 74.3093C118.833 74.0116 118.993 73.8671 119.189 73.9878C119.384 74.1088 119.46 74.3432 119.358 74.509C119.255 74.6748 119.334 74.9109 119.533 75.0337C119.731 75.1565 119.81 75.3926 119.708 75.5588C119.605 75.7246 119.837 76.0821 120.224 76.3528C120.611 76.6239 120.815 76.9577 120.678 77.0951C120.541 77.2323 120.699 77.2407 121.03 77.1137C121.434 76.9587 121.632 77.0549 121.632 77.4075C121.632 77.6961 121.868 78.0228 122.156 78.1337C122.445 78.2443 122.681 78.5185 122.681 78.7431C122.681 78.9677 123.083 79.5235 123.574 79.9783C124.32 80.6702 124.835 80.8055 126.722 80.8055C128.847 80.8055 129.63 80.4309 128.45 79.9783C128.159 79.8667 127.942 79.6533 127.966 79.5036C128.086 78.777 127.88 78.3569 127.403 78.3569C127.115 78.3569 126.879 78.1159 126.879 77.8213C126.879 77.5265 126.652 77.1987 126.376 77.0927C126.1 76.9867 125.951 76.6974 126.046 76.4501C126.142 76.1993 125.9 75.917 125.499 75.812C125.103 75.7085 124.78 75.4325 124.78 75.1985C124.78 74.8854 124.941 74.8997 125.392 75.2534C125.947 75.6882 125.959 75.676 125.524 75.1212C125.26 74.7847 124.827 74.509 124.562 74.509C124.297 74.509 124.061 74.3516 124.037 74.1592C124.012 73.9668 123.954 73.652 123.905 73.4596C123.857 73.2672 123.796 72.9132 123.769 72.6725C123.735 72.3682 123.617 72.3948 123.381 72.76C123.056 73.2616 122.999 73.2179 122.9 72.3976C122.876 72.1978 122.639 71.9008 122.374 71.7368C121.967 71.4853 121.974 71.2726 122.421 70.3767C122.905 69.4074 122.901 69.3301 122.379 69.4917C121.944 69.6264 121.97 69.5358 122.485 69.1157C122.859 68.8113 123.331 68.5598 123.535 68.557C123.739 68.5539 123.669 68.3965 123.381 68.2072C122.943 67.92 122.988 67.8266 123.649 67.6454C124.123 67.5153 124.404 67.1998 124.348 66.8584C124.297 66.5449 124.452 66.3281 124.692 66.376C124.933 66.4243 125.13 66.306 125.13 66.1136C125.13 65.3682 125.195 65.23 125.679 64.9593C125.954 64.8054 126.179 64.4618 126.179 64.196C126.179 63.9298 126.486 63.6146 126.861 63.4957C127.273 63.3648 127.466 63.0791 127.348 62.7726C127.241 62.4938 127.31 62.2657 127.5 62.2657C127.691 62.2657 127.944 61.9117 128.062 61.4787C128.244 60.8147 128.336 60.7735 128.647 61.2163C128.952 61.6508 128.996 61.6207 128.903 61.0414C128.805 60.4219 128.502 60.3362 126.265 60.2935C124.875 60.2673 123.819 60.3775 123.919 60.5384C124.018 60.6997 123.782 61.0015 123.394 61.2093C123.006 61.4171 122.726 61.7652 122.772 61.9827C122.818 62.2007 122.462 62.4949 121.981 62.6372C121.5 62.7793 121.299 62.9111 121.533 62.9304C121.768 62.9496 121.873 63.1917 121.767 63.468C121.655 63.7573 121.339 63.8805 121.02 63.7584C120.655 63.6178 120.553 63.6846 120.72 63.9553C120.86 64.1806 120.797 64.3646 120.582 64.3646C120.367 64.3646 120.287 64.5199 120.404 64.7099C120.615 65.0499 120.371 65.4399 119.033 66.9014L118.357 67.6388L118.017 66.8762C117.83 66.4568 117.543 66.1136 117.38 66.1136C117.217 66.1136 117.084 65.9468 117.084 65.7432C117.084 65.5396 117.258 65.4801 117.47 65.6113C117.683 65.7425 117.581 65.4301 117.245 64.9173C116.909 64.4045 116.224 63.7615 115.722 63.489C115.221 63.2165 115.027 62.987 115.29 62.9794C115.976 62.9594 115.083 61.9159 114.38 61.9159C114.062 61.9159 113.939 61.7123 114.062 61.3912C114.173 61.1026 114.102 60.8665 113.904 60.8665C113.706 60.8665 113.629 60.7304 113.732 60.5639C113.834 60.3978 112.729 60.2341 111.276 60.2005C108.891 60.1452 108.65 60.2001 108.803 60.7651ZM39.7766 61.5249C39.7766 61.7172 39.934 61.9719 40.1264 62.0908C40.3188 62.2098 40.4762 62.1496 40.4762 61.9572C40.4762 61.7648 40.3188 61.5102 40.1264 61.3912C39.934 61.2723 39.7766 61.3325 39.7766 61.5249ZM54.5326 61.9918C54.2817 62.2427 54.1187 62.2633 54.1187 62.0443C54.1187 61.5773 54.5326 61.1635 54.7659 61.3972C54.8652 61.4965 54.7603 61.7641 54.5326 61.9918ZM2.52212 62.9654C1.96908 63.5425 1.63221 64.0148 1.77388 64.0148C2.02294 64.0148 3.74645 62.2892 3.74645 62.0398C3.74645 61.7638 3.48094 61.9646 2.52212 62.9654ZM96.5896 63.8766C96.8929 63.9927 97.0702 64.2026 96.9835 64.3429C96.897 64.4832 97.0482 64.5979 97.32 64.5979C97.5918 64.5979 97.7418 64.4814 97.654 64.3391C97.5659 64.1967 97.8867 64.2621 98.3662 64.4849C98.8458 64.7074 99.2397 65.0166 99.2411 65.1723C99.2425 65.328 99.3803 65.371 99.5468 65.2681C100.011 64.9813 101.104 66.3683 100.878 66.9574C100.734 67.3334 100.843 67.4156 101.273 67.2547C101.781 67.0644 101.801 67.1137 101.411 67.594C101.029 68.0642 101.049 68.209 101.532 68.479C101.888 68.6784 102.14 69.3266 102.189 70.1689C102.285 71.8295 102.093 72.4826 101.596 72.1758C101.359 72.0292 101.309 72.1678 101.459 72.5571C101.625 72.9909 101.337 73.4841 100.469 74.253C99.7949 74.8494 99.2439 75.5193 99.2439 75.7414C99.2439 76.4088 97.6579 76.9748 97.1367 76.4935C96.8212 76.2017 96.7575 76.1989 96.917 76.4837C97.3952 77.3386 95.3621 77.5733 94.5463 76.7579C94.2287 76.4399 93.9968 76.3749 93.9968 76.6037C93.9968 76.8209 93.8369 76.8999 93.6414 76.7793C93.4459 76.6582 93.3972 76.3735 93.5337 76.1465C93.6746 75.911 93.5266 75.9401 93.1894 76.2133C92.8036 76.5264 92.5976 76.5568 92.5976 76.3007C92.5976 76.0849 92.4472 75.9082 92.2635 75.9082C91.8297 75.9082 90.1489 74.2274 90.1489 73.7936C90.1489 73.61 89.9653 73.4596 89.7407 73.4596C89.5165 73.4596 89.4364 73.356 89.563 73.2294C89.6896 73.1028 89.6294 72.8019 89.4294 72.5609C89.1771 72.2573 89.1782 72.053 89.4322 71.896C89.634 71.7714 89.7991 71.5119 89.7991 71.3195C89.7991 71.1271 89.6417 71.0669 89.4493 71.1858C89.2447 71.3125 89.0995 70.9494 89.0995 70.3113C89.0995 69.532 89.2244 69.2955 89.5368 69.4833C89.8645 69.6803 89.8603 69.6058 89.5196 69.1853C89.209 68.8019 89.1831 68.5518 89.4381 68.3944C89.6427 68.2677 89.72 68.0176 89.6092 67.8385C89.4986 67.6594 89.584 67.5129 89.7991 67.5129C90.0142 67.5129 90.1034 67.3722 89.9971 67.2005C89.8908 67.0284 90.194 66.7898 90.6708 66.6702C91.2046 66.5362 91.6212 66.1189 91.7556 65.5837C91.9536 64.7956 92.2908 64.5556 93.0348 64.6731C93.1793 64.6959 93.2972 64.5475 93.2972 64.3439C93.2972 64.1404 93.4151 64.0417 93.5595 64.1253C93.704 64.2086 94.1367 64.1505 94.5215 63.9955C95.4079 63.6391 95.8973 63.6108 96.5896 63.8766ZM116.559 64.3646C116.678 64.557 116.609 64.7144 116.405 64.7144C116.202 64.7144 116.035 64.557 116.035 64.3646C116.035 64.1722 116.104 64.0148 116.189 64.0148C116.274 64.0148 116.44 64.1722 116.559 64.3646ZM16.3395 64.735C16.3395 64.9386 16.4969 65.0082 16.6893 64.8893C16.8817 64.7704 17.0391 64.6039 17.0391 64.5189C17.0391 64.4339 16.8817 64.3646 16.6893 64.3646C16.4969 64.3646 16.3395 64.5314 16.3395 64.735ZM33.4801 67.5129C33.2741 67.8976 33.1845 68.2125 33.2807 68.2125C33.3769 68.2125 33.6239 67.8976 33.8299 67.5129C34.0359 67.1281 34.1255 66.8132 34.0293 66.8132C33.9331 66.8132 33.6861 67.1281 33.4801 67.5129ZM106.295 69.6117C106.295 70.0927 106.375 70.2896 106.472 70.049C106.569 69.8086 106.569 69.4151 106.472 69.1744C106.375 68.9341 106.295 69.1307 106.295 69.6117ZM35.2344 73.3515C35.2375 73.5072 35.3925 73.8706 35.5789 74.1592C35.871 74.6115 35.9186 74.6021 35.9235 74.0924C35.9263 73.7671 35.7713 73.4036 35.5789 73.2847C35.3865 73.1657 35.2316 73.1958 35.2344 73.3515ZM100.357 75.2845C100.107 75.5353 99.9435 75.556 99.9435 75.337C99.9435 75.138 100.048 74.8704 100.177 74.7423C100.305 74.614 100.491 74.5905 100.591 74.6899C100.69 74.7892 100.585 75.0568 100.357 75.2845ZM16.1646 75.9082C16.2836 76.1006 16.4501 76.258 16.5351 76.258C16.6201 76.258 16.6893 76.1006 16.6893 75.9082C16.6893 75.7158 16.5225 75.5584 16.3189 75.5584C16.1153 75.5584 16.0457 75.7158 16.1646 75.9082ZM120.582 75.9082C120.582 76.1006 120.513 76.258 120.428 76.258C120.343 76.258 120.176 76.1006 120.057 75.9082C119.939 75.7158 120.008 75.5584 120.212 75.5584C120.415 75.5584 120.582 75.7158 120.582 75.9082Z" fill="white"/>
</svg>
