<?xml version="1.0" encoding="UTF-8"?>
<!DOCTYPE svg PUBLIC "-//W3C//DTD SVG 1.1//EN" "http://www.w3.org/Graphics/SVG/1.1/DTD/svg11.dtd">
<svg xmlns="http://www.w3.org/2000/svg" version="1.1" width="228px" height="204px" style="shape-rendering:geometricPrecision; text-rendering:geometricPrecision; image-rendering:optimizeQuality; fill-rule:evenodd; clip-rule:evenodd" xmlns:xlink="http://www.w3.org/1999/xlink">
<g><path style="opacity:0.325" fill="#5b5b5b" d="M 103.5,-0.5 C 110.5,-0.5 117.5,-0.5 124.5,-0.5C 124.5,0.166667 124.5,0.833333 124.5,1.5C 117.5,0.166667 110.5,0.166667 103.5,1.5C 103.5,0.833333 103.5,0.166667 103.5,-0.5 Z"/></g>
<g><path style="opacity:1" fill="#eaeaea" d="M 124.5,1.5 C 125.5,1.5 126.5,1.5 127.5,1.5C 130.374,2.68113 133.207,4.01446 136,5.5C 137.011,4.66337 138.178,4.33003 139.5,4.5C 174.995,14.0612 197.995,36.3945 208.5,71.5C 208.41,74.1522 209.076,76.4855 210.5,78.5C 217.485,108.248 211.818,135.248 193.5,159.5C 192.094,159.973 191.427,160.973 191.5,162.5C 190.2,165.432 188.2,167.766 185.5,169.5C 182.921,168.772 180.254,168.272 177.5,168C 176.834,166.34 176.834,164.506 177.5,162.5C 177.833,161.5 178.5,160.833 179.5,160.5C 181.587,159.415 182.92,157.749 183.5,155.5C 187.572,149.698 191.406,143.698 195,137.5C 195.699,135.926 195.365,134.593 194,133.5C 184.576,138.128 175.076,142.628 165.5,147C 164,148.5 162.5,150 161,151.5C 156.378,160.422 151.545,169.089 146.5,177.5C 146.631,176.761 146.464,176.094 146,175.5C 143.443,176.646 142.11,175.646 142,172.5C 140.563,175.37 139.063,175.704 137.5,173.5C 137.975,171.216 138.975,169.216 140.5,167.5C 141.906,167.027 142.573,166.027 142.5,164.5C 143.906,164.027 144.573,163.027 144.5,161.5C 146.577,157.703 147.744,153.703 148,149.5C 137.891,150.054 128.224,152.387 119,156.5C 117.621,166.468 117.287,176.468 118,186.5C 118.414,186.957 118.914,187.291 119.5,187.5C 122.34,186.797 125.007,185.797 127.5,184.5C 129.062,184.267 130.395,183.6 131.5,182.5C 132.497,182.47 133.164,182.97 133.5,184C 132.351,185.73 132.351,187.396 133.5,189C 132.745,191.133 131.412,192.8 129.5,194C 130.549,194.492 131.549,194.326 132.5,193.5C 133.696,193.846 133.696,194.346 132.5,195C 120.994,197.318 109.327,198.151 97.5,197.5C 69.4188,193.378 47.2521,179.712 31,156.5C 12.8407,126.917 9.50733,95.5833 21,62.5C 23.5335,55.8318 27.0335,49.8318 31.5,44.5C 32.9063,44.0269 33.573,43.0269 33.5,41.5C 35.7881,37.5442 38.7881,34.2109 42.5,31.5C 45.1667,30.8333 46.8333,29.1667 47.5,26.5C 51.2577,22.4078 55.591,19.0745 60.5,16.5C 62.0269,16.573 63.0269,15.9063 63.5,14.5C 75.7869,7.09183 89.1202,2.75849 103.5,1.5C 110.5,0.166667 117.5,0.166667 124.5,1.5 Z M 148.5,49.5 C 148.167,50.5 147.5,51.1667 146.5,51.5C 138.712,50.3689 131.046,48.7023 123.5,46.5C 122.359,45.661 121.026,44.9943 119.5,44.5C 118.833,40.0178 118.166,35.6845 117.5,31.5C 117.17,25.1318 117.504,18.7985 118.5,12.5C 126.17,14.3337 132.003,18.667 136,25.5C 140.435,33.3694 144.601,41.3694 148.5,49.5 Z M 104.5,13.5 C 105.5,13.5 106.5,13.5 107.5,13.5C 107.179,18.6946 107.513,23.6946 108.5,28.5C 108.5,29.5 108.5,30.5 108.5,31.5C 107.784,36.0638 107.117,40.7305 106.5,45.5C 98.3113,47.7396 89.978,49.7396 81.5,51.5C 80.209,51.7373 79.209,51.404 78.5,50.5C 81.834,42.7184 85.6673,35.0517 90,27.5C 94.0683,21.9297 98.9017,17.2631 104.5,13.5 Z M 149.5,18.5 C 167.291,26.4612 181.124,38.7945 191,55.5C 193.406,59.6385 195.239,63.9718 196.5,68.5C 195.833,68.5 195.5,68.8333 195.5,69.5C 187.468,64.8171 179.134,60.6504 170.5,57C 166.084,54.5883 162.251,51.4217 159,47.5C 155.137,38.4483 151.303,29.4483 147.5,20.5C 148.5,20.1667 149.167,19.5 149.5,18.5 Z M 42.5,63.5 C 40.9731,63.427 39.9731,64.0937 39.5,65.5C 35.5808,67.2612 32.0808,69.5945 29,72.5C 34.4551,57.6112 42.9551,44.6112 54.5,33.5C 56.0269,33.573 57.0269,32.9063 57.5,31.5C 63.6351,25.4301 70.9685,21.4301 79.5,19.5C 76.524,29.1275 72.6907,38.4609 68,47.5C 60.8506,54.9441 52.3506,60.2774 42.5,63.5 Z M 90.5,58.5 C 95.2675,58.1908 99.9342,58.6908 104.5,60C 106.768,61.5577 107.934,63.7244 108,66.5C 108.915,90.1959 108.582,113.863 107,137.5C 105.022,140.574 102.188,142.241 98.5,142.5C 82.2733,142.435 73.7733,134.435 73,118.5C 72.1774,104.136 72.5107,89.8027 74,75.5C 76.0416,66.2937 81.5416,60.627 90.5,58.5 Z M 147.5,133.5 C 146.869,135.448 145.869,137.281 144.5,139C 142.277,139.566 140.277,140.4 138.5,141.5C 133.828,142.003 129.161,142.169 124.5,142C 122.291,140.127 120.458,137.96 119,135.5C 118.333,112.833 118.333,90.1667 119,67.5C 119.093,64.9925 119.926,62.8259 121.5,61C 128.022,58.1173 134.689,57.784 141.5,60C 146.001,63.5376 150.167,67.3709 154,71.5C 154.667,87.5 154.667,103.5 154,119.5C 153.333,122.833 152.667,126.167 152,129.5C 150.933,130.191 149.766,130.691 148.5,131C 147.748,131.671 147.414,132.504 147.5,133.5 Z M 63.5,65.5 C 62.3843,87.6157 62.3843,110.116 63.5,133C 53.433,130.81 44.0996,126.81 35.5,121C 26.7604,113.448 23.5938,103.948 26,92.5C 35.3003,78.9441 47.8003,69.9441 63.5,65.5 Z M 164.5,65.5 C 176.618,69.1427 187.118,75.476 196,84.5C 198.527,88.2211 200.527,92.2211 202,96.5C 202.854,100.625 202.52,104.625 201,108.5C 198.752,111.328 196.752,114.328 195,117.5C 191.291,120.715 187.458,123.715 183.5,126.5C 181.973,126.427 180.973,127.094 180.5,128.5C 174.803,130.434 169.303,132.767 164,135.5C 164.801,122.911 165.634,110.245 166.5,97.5C 166.351,93.1411 166.017,88.8078 165.5,84.5C 165.443,78.1487 165.11,71.8154 164.5,65.5 Z M 78.5,176.5 C 77.596,177.209 77.2627,178.209 77.5,179.5C 76.5,179.5 75.5,179.5 74.5,179.5C 55.1667,171.5 41.5,157.833 33.5,138.5C 33.8799,136.302 33.2132,134.635 31.5,133.5C 31.369,132.761 31.5357,132.094 32,131.5C 34.0795,133.123 36.2462,134.623 38.5,136C 47.4369,139.469 56.1035,143.469 64.5,148C 69.272,157.504 73.9387,167.004 78.5,176.5 Z M 98.5,152.5 C 100.515,153.924 102.848,154.59 105.5,154.5C 105.833,154.5 106.167,154.5 106.5,154.5C 106.932,155.71 107.599,156.71 108.5,157.5C 108.5,166.167 108.5,174.833 108.5,183.5C 106.958,184.301 105.292,184.634 103.5,184.5C 93.4668,179.822 86.6335,172.155 83,161.5C 81.7305,157.859 80.5639,154.192 79.5,150.5C 80.1667,150.167 80.8333,149.833 81.5,149.5C 87.1516,150.664 92.8183,151.664 98.5,152.5 Z"/></g>
<g><path style="opacity:1" fill="#a5a5a5" d="M 127.5,1.5 C 131.837,1.58413 135.837,2.58413 139.5,4.5C 138.178,4.33003 137.011,4.66337 136,5.5C 133.207,4.01446 130.374,2.68113 127.5,1.5 Z"/></g>
<g><path style="opacity:0.706" fill="#6b6b6b" d="M 63.5,14.5 C 63.0269,15.9063 62.0269,16.573 60.5,16.5C 60.9731,15.0937 61.9731,14.427 63.5,14.5 Z"/></g>
<g><path style="opacity:0.361" fill="#5c5c5c" d="M 145.5,18.5 C 144.733,17.828 144.066,16.9947 143.5,16C 145.061,15.8119 145.728,16.6453 145.5,18.5 Z"/></g>
<g><path style="opacity:0.039" fill="#292929" d="M 146.5,16.5 C 147.71,16.9321 148.71,17.5987 149.5,18.5C 149.167,19.5 148.5,20.1667 147.5,20.5C 147.672,19.5084 147.338,18.8417 146.5,18.5C 146.5,17.8333 146.5,17.1667 146.5,16.5 Z"/></g>
<g><path style="opacity:0.013" fill="#181818" d="M 104.5,13.5 C 105.568,12.5655 106.901,12.2322 108.5,12.5C 108.5,17.8333 108.5,23.1667 108.5,28.5C 107.513,23.6946 107.179,18.6946 107.5,13.5C 106.5,13.5 105.5,13.5 104.5,13.5 Z"/></g>
<g><path style="opacity:0.753" fill="#707070" d="M 47.5,26.5 C 46.8333,29.1667 45.1667,30.8333 42.5,31.5C 43.8333,29.5 45.5,27.8333 47.5,26.5 Z"/></g>
<g><path style="opacity:0.004" fill="#1e1e1e" d="M 57.5,31.5 C 57.0269,32.9063 56.0269,33.573 54.5,33.5C 54.9731,32.0937 55.9731,31.427 57.5,31.5 Z"/></g>
<g><path style="opacity:0.106" fill="#292929" d="M 108.5,31.5 C 109.103,36.6186 108.436,41.2853 106.5,45.5C 107.117,40.7305 107.784,36.0638 108.5,31.5 Z"/></g>
<g><path style="opacity:0.125" fill="#3b3b3b" d="M 117.5,31.5 C 118.166,35.6845 118.833,40.0178 119.5,44.5C 121.026,44.9943 122.359,45.661 123.5,46.5C 121.738,46.6427 120.071,46.3094 118.5,45.5C 117.507,40.8804 117.173,36.2137 117.5,31.5 Z"/></g>
<g><path style="opacity:0.608" fill="#5a5a5a" d="M 33.5,41.5 C 33.573,43.0269 32.9063,44.0269 31.5,44.5C 31.427,42.9731 32.0937,41.9731 33.5,41.5 Z"/></g>
<g><path style="opacity:0.141" fill="#373737" d="M 148.5,49.5 C 149.404,50.209 149.737,51.209 149.5,52.5C 148.209,52.7373 147.209,52.404 146.5,51.5C 147.5,51.1667 148.167,50.5 148.5,49.5 Z"/></g>
<g><path style="opacity:0.343" fill="#666666" d="M 78.5,50.5 C 79.209,51.404 80.209,51.7373 81.5,51.5C 80.2918,52.782 78.9584,52.782 77.5,51.5C 77.6236,50.8933 77.9569,50.56 78.5,50.5 Z"/></g>
<g><path style="opacity:0.655" fill="#6d6d6d" d="M 42.5,63.5 C 42.0269,64.9063 41.0269,65.573 39.5,65.5C 39.9731,64.0937 40.9731,63.427 42.5,63.5 Z"/></g>
<g><path style="opacity:0.035" fill="#232323" d="M 197.5,69.5 C 197.611,70.1174 197.944,70.6174 198.5,71C 197.251,71.7401 196.251,71.5735 195.5,70.5C 196.167,70.1667 196.833,69.8333 197.5,69.5 Z"/></g>
<g><path style="opacity:0.749" fill="#8c8c8c" d="M 208.5,71.5 C 209.924,73.5145 210.59,75.8478 210.5,78.5C 209.076,76.4855 208.41,74.1522 208.5,71.5 Z"/></g>
<g><path style="opacity:0.686" fill="#868686" d="M 164.5,65.5 C 165.11,71.8154 165.443,78.1487 165.5,84.5C 164.546,79.8521 163.88,75.0187 163.5,70C 163.508,68.2933 163.842,66.7933 164.5,65.5 Z"/></g>
<g><path style="opacity:0.647" fill="#606060" d="M 183.5,126.5 C 183.027,127.906 182.027,128.573 180.5,128.5C 180.973,127.094 181.973,126.427 183.5,126.5 Z"/></g>
<g><path style="opacity:0.969" fill="#878787" d="M 196.5,134.5 C 196.5,133.833 196.5,133.167 196.5,132.5C 197.833,132.167 197.833,131.833 196.5,131.5C 197.808,128.703 198.475,128.869 198.5,132C 198.316,133.376 197.649,134.209 196.5,134.5 Z"/></g>
<g><path style="opacity:0.027" fill="#343434" d="M 31.5,133.5 C 33.2132,134.635 33.8799,136.302 33.5,138.5C 32.4625,137.07 31.7959,135.403 31.5,133.5 Z"/></g>
<g><path style="opacity:0.757" fill="#8f8f8f" d="M 147.5,133.5 C 147.732,139.572 144.732,142.239 138.5,141.5C 140.277,140.4 142.277,139.566 144.5,139C 145.869,137.281 146.869,135.448 147.5,133.5 Z"/></g>
<g><path style="opacity:0.529" fill="#646464" d="M 98.5,152.5 C 101.152,152.41 103.485,153.076 105.5,154.5C 102.848,154.59 100.515,153.924 98.5,152.5 Z"/></g>
<g><path style="opacity:0.024" fill="#323232" d="M 106.5,154.5 C 108.048,154.821 108.715,155.821 108.5,157.5C 107.599,156.71 106.932,155.71 106.5,154.5 Z"/></g>
<g><path style="opacity:0.525" fill="#626262" d="M 183.5,155.5 C 182.92,157.749 181.587,159.415 179.5,160.5C 180.08,158.251 181.413,156.585 183.5,155.5 Z"/></g>
<g><path style="opacity:0.114" fill="#4e4e4e" d="M 193.5,159.5 C 193.573,161.027 192.906,162.027 191.5,162.5C 191.427,160.973 192.094,159.973 193.5,159.5 Z"/></g>
<g><path style="opacity:0.443" fill="#656565" d="M 144.5,161.5 C 144.573,163.027 143.906,164.027 142.5,164.5C 142.427,162.973 143.094,161.973 144.5,161.5 Z"/></g>
<g><path style="opacity:0.227" fill="#484848" d="M 142.5,164.5 C 142.573,166.027 141.906,167.027 140.5,167.5C 140.427,165.973 141.094,164.973 142.5,164.5 Z"/></g>
<g><path style="opacity:1" fill="#dfdfdf" d="M 177.5,162.5 C 176.834,164.506 176.834,166.34 177.5,168C 180.254,168.272 182.921,168.772 185.5,169.5C 161.077,193.862 131.743,203.195 97.5,197.5C 109.327,198.151 120.994,197.318 132.5,195C 133.696,194.346 133.696,193.846 132.5,193.5C 131.549,194.326 130.549,194.492 129.5,194C 131.412,192.8 132.745,191.133 133.5,189C 132.351,187.396 132.351,185.73 133.5,184C 133.164,182.97 132.497,182.47 131.5,182.5C 132.11,181.609 132.443,180.609 132.5,179.5C 134.177,177.46 135.844,175.46 137.5,173.5C 139.063,175.704 140.563,175.37 142,172.5C 142.11,175.646 143.443,176.646 146,175.5C 146.464,176.094 146.631,176.761 146.5,177.5C 146.067,180.195 144.734,182.362 142.5,184C 144.553,184.325 146.553,183.991 148.5,183C 159.156,177.502 168.823,170.669 177.5,162.5 Z"/></g>
<g><path style="opacity:0.118" fill="#4e4e4e" d="M 78.5,176.5 C 79.803,178.142 81.1363,179.809 82.5,181.5C 84.0878,182.635 84.4212,183.969 83.5,185.5C 80.8927,182.764 77.8927,180.764 74.5,179.5C 75.5,179.5 76.5,179.5 77.5,179.5C 77.2627,178.209 77.596,177.209 78.5,176.5 Z"/></g>
<g><path style="opacity:0.804" fill="#848484" d="M 132.5,179.5 C 132.443,180.609 132.11,181.609 131.5,182.5C 130.395,183.6 129.062,184.267 127.5,184.5C 128.833,182.5 130.5,180.833 132.5,179.5 Z"/></g>
<g><path style="opacity:0.151" fill="#414141" d="M 108.5,183.5 C 108.209,184.649 107.376,185.316 106,185.5C 104.93,185.472 104.097,185.139 103.5,184.5C 104.097,185.139 104.93,185.472 106,185.5C 107.376,185.316 108.209,184.649 108.5,183.5 Z"/></g>
</svg>
