<svg width="85" height="85" viewBox="0 0 85 85" fill="none" xmlns="http://www.w3.org/2000/svg">
<path fill-rule="evenodd" clip-rule="evenodd" d="M16.7085 10.9515C21.0512 6.37942 28.2345 7.23603 31.8243 12.3133L36.2903 18.6298C39.1617 22.6909 38.9191 28.3369 35.4923 31.9447L34.6251 32.8577C34.6227 32.864 34.6201 32.8709 34.6175 32.8783C34.5717 33.007 34.4558 33.4171 34.5699 34.1954C34.8063 35.8088 36.0517 39.0872 41.108 44.4105C46.1802 49.7506 49.2567 51.0092 50.6824 51.2407C51.2974 51.3406 51.6191 51.2538 51.7217 51.2177L53.1689 49.694C56.2636 46.436 61.0886 45.7941 64.979 48.0334L71.7453 51.928C77.5286 55.2568 78.8746 63.3998 74.2528 68.2657L69.2217 73.5625C67.6515 75.2156 65.5104 76.6268 62.8645 76.8879C56.405 77.5255 41.441 76.695 25.7536 60.1792C11.1153 44.7678 8.33447 31.3629 7.98293 24.8136L10.342 24.687L7.98293 24.8136C7.80925 21.5777 9.2517 18.8021 11.1495 16.8041L16.7085 10.9515ZM27.4865 15.3803C25.672 12.8138 22.4121 12.6607 20.5604 14.6102L15.0014 20.4627C13.8277 21.6984 13.2119 23.1147 13.2878 24.5289C13.5748 29.8762 15.8775 42.0676 29.6055 56.5205C43.9995 71.6746 57.2604 72.1028 62.3427 71.6011C63.3476 71.5019 64.3816 70.9443 65.3699 69.9038L70.401 64.607C72.5713 62.3221 72.0024 58.2057 69.0952 56.5323L62.3288 52.6376C60.513 51.5925 58.3859 51.9155 57.0208 53.3527L55.4078 55.0509L53.5407 53.2774C55.4077 55.051 55.4053 55.0535 55.4029 55.0561L55.3978 55.0614L55.3873 55.0722L55.3649 55.0951L55.3141 55.1452C55.2775 55.1804 55.2355 55.2193 55.1879 55.2611C55.0927 55.3445 54.9749 55.4397 54.8334 55.5401C54.5496 55.7413 54.1717 55.9627 53.6938 56.1511C52.7163 56.5367 51.4255 56.7435 49.8307 56.4845C46.7229 55.9798 42.6495 53.7475 37.2561 48.0692C31.8467 42.3742 29.7764 38.1251 29.3135 34.9656C29.0779 33.3574 29.2664 32.0697 29.6125 31.0972C29.7826 30.619 29.9836 30.2377 30.1688 29.9482C30.2612 29.8038 30.3493 29.6829 30.4272 29.5845C30.4661 29.5353 30.5025 29.4917 30.5356 29.4536L30.5828 29.4005L30.6044 29.377L30.6147 29.366L30.6197 29.3607C30.6221 29.3581 30.6246 29.3556 32.5076 31.144L30.6246 29.3555L31.6404 28.2861C33.2184 26.6248 33.4476 23.8114 31.9525 21.6968L27.4865 15.3803Z" fill="#E7F0FF"/>
<path d="M46.9608 6.65863C47.1953 5.21048 48.5643 4.22811 50.0124 4.46256C50.1021 4.47972 50.3905 4.53363 50.5416 4.56728C50.8438 4.63458 51.2654 4.73821 51.791 4.8913C52.8421 5.19745 54.3105 5.7018 56.0728 6.50978C59.6013 8.12745 64.2969 10.9573 69.1695 15.8299C74.0422 20.7025 76.872 25.3981 78.4896 28.9266C79.2976 30.689 79.802 32.1574 80.1081 33.2085C80.2612 33.7341 80.3648 34.1556 80.4321 34.4578C80.4658 34.6089 80.4904 34.7303 80.5075 34.8199L80.5279 34.9304C80.7624 36.3786 79.7889 37.8041 78.3408 38.0386C76.8968 38.2724 75.5364 37.2947 75.2962 35.8534C75.2888 35.8147 75.2685 35.7107 75.2467 35.6127C75.203 35.4165 75.1274 35.1055 75.0076 34.6941C74.7679 33.8712 74.3516 32.6482 73.6605 31.1406C72.2798 28.1291 69.7971 23.9705 65.413 19.5864C61.0289 15.2023 56.8704 12.7196 53.8589 11.339C52.3513 10.6478 51.1282 10.2315 50.3053 9.99184C49.894 9.87202 49.3769 9.75333 49.1808 9.70965C47.7394 9.46945 46.7271 8.10265 46.9608 6.65863Z" fill="#E7F0FF"/>
<path fill-rule="evenodd" clip-rule="evenodd" d="M47.763 18.8757C48.1661 17.4651 49.6363 16.6484 51.0468 17.0514L50.3171 19.6054C51.0468 17.0514 51.0481 17.0517 51.0493 17.0521L51.0519 17.0528L51.0573 17.0544L51.0692 17.0579L51.0966 17.066L51.1667 17.0879C51.2201 17.105 51.2868 17.1272 51.3663 17.1554C51.5254 17.2119 51.7356 17.2921 51.9934 17.4026C52.5094 17.6238 53.2144 17.9653 54.0804 18.4778C55.8139 19.5037 58.1804 21.2079 60.9605 23.988C63.7406 26.7681 65.4448 29.1346 66.4708 30.8681C66.9833 31.7341 67.3248 32.4391 67.5459 32.9551C67.6564 33.213 67.7367 33.4232 67.7931 33.5822C67.8213 33.6618 67.8436 33.7284 67.8607 33.7818L67.8825 33.8519L67.8907 33.8794L67.8941 33.8912L67.8957 33.8966L67.8964 33.8992C67.8968 33.9005 67.8972 33.9017 65.3431 34.6314L67.8972 33.9017C68.3002 35.3123 67.4834 36.7825 66.0728 37.1855C64.6743 37.5851 63.217 36.7855 62.7996 35.397L62.7865 35.3588C62.7676 35.3056 62.7285 35.2008 62.6629 35.0478C62.5319 34.742 62.2943 34.2418 61.8989 33.5739C61.1093 32.2396 59.683 30.2235 57.204 27.7445C54.725 25.2655 52.7089 23.8393 51.3746 23.0496C50.7067 22.6543 50.2065 22.4166 49.9007 22.2856C49.7477 22.22 49.643 22.1809 49.5897 22.1621L49.5516 22.149C48.163 21.7315 47.3634 20.2743 47.763 18.8757Z" fill="#E7F0FF"/>
</svg>
