<svg width="38" height="38" viewBox="0 0 38 38" fill="none" xmlns="http://www.w3.org/2000/svg">
<rect width="38" height="38" rx="19" fill="white"/>
<g clip-path="url(#clip0_276_380)">
<path d="M18.9113 5.17223e-05C13.8876 0.0234961 9.07762 2.03562 5.53359 5.59627C1.98955 9.15693 -5.47026e-05 13.9763 1.12802e-09 19.0001C1.12803e-09 24.0392 2.00178 28.8719 5.56497 32.4351C9.12816 35.9983 13.9609 38.0001 19 38.0001C24.0391 38.0001 28.8718 35.9983 32.435 32.4351C35.9982 28.8719 38 24.0392 38 19.0001C38 13.9609 35.9982 9.12821 32.435 5.56502C28.8718 2.00183 24.0391 5.17223e-05 19 5.17223e-05C18.9704 -1.72408e-05 18.9409 -1.72408e-05 18.9113 5.17223e-05ZM26.7678 11.4381C26.9262 11.4349 27.2761 11.4745 27.5041 11.6597C27.6556 11.7913 27.7522 11.9749 27.7748 12.1743C27.8002 12.3216 27.8318 12.6588 27.8065 12.9216C27.5215 15.9268 26.2833 23.2165 25.6532 26.5811C25.3872 28.0061 24.8631 28.4826 24.3548 28.5286C23.2528 28.6315 22.4153 27.8002 21.3465 27.1004C19.6745 26.0031 18.7292 25.3207 17.1063 24.2504C15.2301 23.0154 16.4461 22.3346 17.5148 21.2262C17.7951 20.9349 22.6559 16.5126 22.7509 16.1121C22.762 16.0614 22.7731 15.8746 22.6623 15.7764C22.5514 15.6782 22.3868 15.7115 22.268 15.7384C22.1002 15.7764 19.4291 17.5434 14.2548 21.0346C13.4948 21.5571 12.8092 21.8105 12.1933 21.7946C11.5156 21.782 10.2109 21.4131 9.24033 21.098C8.04967 20.7101 7.10442 20.5058 7.18675 19.8487C7.2295 19.5067 7.70133 19.1568 8.60067 18.799C14.1392 16.386 17.8315 14.7947 19.6808 14.0268C24.9565 11.8323 26.0538 11.4507 26.7678 11.4381Z" fill="#3B86FF"/>
</g>
<defs>
<clipPath id="clip0_276_380">
<rect width="38" height="38" fill="white"/>
</clipPath>
</defs>
</svg>
