<svg width="28" height="28" viewBox="0 0 28 28" fill="none" xmlns="http://www.w3.org/2000/svg">
<path d="M23.4001 4.54664C22.1777 3.31188 20.7216 2.33287 19.1169 1.66671C17.5122 1.00056 15.7909 0.660591 14.0534 0.666644C6.7734 0.666644 0.840065 6.59998 0.840065 13.88C0.840065 16.2133 1.4534 18.48 2.60007 20.48L0.733398 27.3333L7.7334 25.4933C9.66673 26.5466 11.8401 27.1066 14.0534 27.1066C21.3334 27.1066 27.2667 21.1733 27.2667 13.8933C27.2667 10.36 25.8934 7.03998 23.4001 4.54664ZM14.0534 24.8666C12.0801 24.8666 10.1467 24.3333 8.4534 23.3333L8.0534 23.0933L3.8934 24.1866L5.00007 20.1333L4.7334 19.72C3.63706 17.9693 3.05492 15.9456 3.0534 13.88C3.0534 7.82664 7.98673 2.89331 14.0401 2.89331C16.9734 2.89331 19.7334 4.03998 21.8001 6.11998C22.8234 7.1386 23.6343 8.35019 24.1859 9.68454C24.7375 11.0189 25.0188 12.4495 25.0134 13.8933C25.0401 19.9466 20.1067 24.8666 14.0534 24.8666ZM20.0801 16.6533C19.7467 16.4933 18.1201 15.6933 17.8267 15.5733C17.5201 15.4666 17.3067 15.4133 17.0801 15.7333C16.8534 16.0666 16.2267 16.8133 16.0401 17.0266C15.8534 17.2533 15.6534 17.28 15.3201 17.1066C14.9867 16.9466 13.9201 16.5866 12.6667 15.4666C11.6801 14.5866 11.0267 13.5066 10.8267 13.1733C10.6401 12.84 10.8001 12.6666 10.9734 12.4933C11.1201 12.3466 11.3067 12.1066 11.4667 11.92C11.6267 11.7333 11.6934 11.5866 11.8001 11.3733C11.9067 11.1466 11.8534 10.96 11.7734 10.8C11.6934 10.64 11.0267 9.01331 10.7601 8.34664C10.4934 7.70665 10.2134 7.78664 10.0134 7.77331H9.3734C9.14673 7.77331 8.80007 7.85331 8.4934 8.18664C8.20007 8.51998 7.34673 9.31998 7.34673 10.9466C7.34673 12.5733 8.5334 14.1466 8.6934 14.36C8.8534 14.5866 11.0267 17.92 14.3334 19.3466C15.1201 19.6933 15.7334 19.8933 16.2134 20.04C17.0001 20.2933 17.7201 20.2533 18.2934 20.1733C18.9334 20.08 20.2534 19.3733 20.5201 18.6C20.8001 17.8266 20.8001 17.1733 20.7067 17.0266C20.6134 16.88 20.4134 16.8133 20.0801 16.6533Z" fill="white"/>
</svg>
